<?xml version="1.0" encoding="utf-8" standalone="no"?>
<!DOCTYPE svg PUBLIC "-//W3C//DTD SVG 1.1//EN"
  "http://www.w3.org/Graphics/SVG/1.1/DTD/svg11.dtd">
<svg xmlns:xlink="http://www.w3.org/1999/xlink" width="813.689531pt" height="553.680469pt" viewBox="0 0 813.689531 553.680469" xmlns="http://www.w3.org/2000/svg" version="1.1">
 <metadata>
  <rdf:RDF xmlns:dc="http://purl.org/dc/elements/1.1/" xmlns:cc="http://creativecommons.org/ns#" xmlns:rdf="http://www.w3.org/1999/02/22-rdf-syntax-ns#">
   <cc:Work>
    <dc:type rdf:resource="http://purl.org/dc/dcmitype/StillImage"/>
    <dc:date>2026-04-21T12:34:06.354287</dc:date>
    <dc:format>image/svg+xml</dc:format>
    <dc:creator>
     <cc:Agent>
      <dc:title>Matplotlib v3.10.8, https://matplotlib.org/</dc:title>
     </cc:Agent>
    </dc:creator>
   </cc:Work>
  </rdf:RDF>
 </metadata>
 <defs>
  <style type="text/css">*{stroke-linejoin: round; stroke-linecap: butt}</style>
 </defs>
 <g id="figure_1">
  <g id="patch_1">
   <path d="M 0 553.680469 
L 813.689531 553.680469 
L 813.689531 0 
L 0 0 
z
" style="fill: #f7fbff"/>
  </g>
  <g id="axes_1">
   <g id="patch_2">
    <path d="M 44.259531 292.508094 
L 401.467031 292.508094 
L 401.467031 108.108094 
L 44.259531 108.108094 
z
" style="fill: #ffffff"/>
   </g>
   <g id="patch_3">
    <path d="M 60.496236 3211.258762 
L 104.07527 3211.258762 
L 104.07527 229.683222 
L 60.496236 229.683222 
z
" clip-path="url(#p1562d7626a)" style="fill: #0b4f6c"/>
   </g>
   <g id="patch_4">
    <path d="M 130.785 3211.258762 
L 174.364034 3211.258762 
L 174.364034 146.295761 
L 130.785 146.295761 
z
" clip-path="url(#p1562d7626a)" style="fill: #7c3aed"/>
   </g>
   <g id="patch_5">
    <path d="M 201.073764 3211.258762 
L 244.652798 3211.258762 
L 244.652798 266.165237 
L 201.073764 266.165237 
z
" clip-path="url(#p1562d7626a)" style="fill: #c47f00; stroke: #12344d; stroke-width: 2.2; stroke-linejoin: miter"/>
   </g>
   <g id="patch_6">
    <path d="M 271.362529 3211.258762 
L 314.941562 3211.258762 
L 314.941562 227.31426 
L 271.362529 227.31426 
z
" clip-path="url(#p1562d7626a)" style="fill: #c2410c"/>
   </g>
   <g id="patch_7">
    <path d="M 341.651293 3211.258762 
L 385.230327 3211.258762 
L 385.230327 134.450951 
L 341.651293 134.450951 
z
" clip-path="url(#p1562d7626a)" style="fill: #178f87"/>
   </g>
   <g id="matplotlib.axis_1">
    <g id="xtick_1">
     <g id="line2d_1">
      <defs>
       <path id="m4b12e20ed6" d="M 0 0 
L 0 3.5 
" style="stroke: #000000; stroke-width: 0.8"/>
      </defs>
      <g>
       <use xlink:href="#m4b12e20ed6" x="82.285753" y="292.508094" style="stroke: #000000; stroke-width: 0.8"/>
      </g>
     </g>
     <g id="text_1">
      <!-- Teacher -->
      <g transform="translate(61.339659 307.714406) scale(0.108 -0.108)">
       <defs>
        <path id="DejaVuSans-54" d="M -19 4666 
L 3928 4666 
L 3928 4134 
L 2272 4134 
L 2272 0 
L 1638 0 
L 1638 4134 
L -19 4134 
L -19 4666 
z
" transform="scale(0.015625)"/>
        <path id="DejaVuSans-65" d="M 3597 1894 
L 3597 1613 
L 953 1613 
Q 991 1019 1311 708 
Q 1631 397 2203 397 
Q 2534 397 2845 478 
Q 3156 559 3463 722 
L 3463 178 
Q 3153 47 2828 -22 
Q 2503 -91 2169 -91 
Q 1331 -91 842 396 
Q 353 884 353 1716 
Q 353 2575 817 3079 
Q 1281 3584 2069 3584 
Q 2775 3584 3186 3129 
Q 3597 2675 3597 1894 
z
M 3022 2063 
Q 3016 2534 2758 2815 
Q 2500 3097 2075 3097 
Q 1594 3097 1305 2825 
Q 1016 2553 972 2059 
L 3022 2063 
z
" transform="scale(0.015625)"/>
        <path id="DejaVuSans-61" d="M 2194 1759 
Q 1497 1759 1228 1600 
Q 959 1441 959 1056 
Q 959 750 1161 570 
Q 1363 391 1709 391 
Q 2188 391 2477 730 
Q 2766 1069 2766 1631 
L 2766 1759 
L 2194 1759 
z
M 3341 1997 
L 3341 0 
L 2766 0 
L 2766 531 
Q 2569 213 2275 61 
Q 1981 -91 1556 -91 
Q 1019 -91 701 211 
Q 384 513 384 1019 
Q 384 1609 779 1909 
Q 1175 2209 1959 2209 
L 2766 2209 
L 2766 2266 
Q 2766 2663 2505 2880 
Q 2244 3097 1772 3097 
Q 1472 3097 1187 3025 
Q 903 2953 641 2809 
L 641 3341 
Q 956 3463 1253 3523 
Q 1550 3584 1831 3584 
Q 2591 3584 2966 3190 
Q 3341 2797 3341 1997 
z
" transform="scale(0.015625)"/>
        <path id="DejaVuSans-63" d="M 3122 3366 
L 3122 2828 
Q 2878 2963 2633 3030 
Q 2388 3097 2138 3097 
Q 1578 3097 1268 2742 
Q 959 2388 959 1747 
Q 959 1106 1268 751 
Q 1578 397 2138 397 
Q 2388 397 2633 464 
Q 2878 531 3122 666 
L 3122 134 
Q 2881 22 2623 -34 
Q 2366 -91 2075 -91 
Q 1284 -91 818 406 
Q 353 903 353 1747 
Q 353 2603 823 3093 
Q 1294 3584 2113 3584 
Q 2378 3584 2631 3529 
Q 2884 3475 3122 3366 
z
" transform="scale(0.015625)"/>
        <path id="DejaVuSans-68" d="M 3513 2113 
L 3513 0 
L 2938 0 
L 2938 2094 
Q 2938 2591 2744 2837 
Q 2550 3084 2163 3084 
Q 1697 3084 1428 2787 
Q 1159 2491 1159 1978 
L 1159 0 
L 581 0 
L 581 4863 
L 1159 4863 
L 1159 2956 
Q 1366 3272 1645 3428 
Q 1925 3584 2291 3584 
Q 2894 3584 3203 3211 
Q 3513 2838 3513 2113 
z
" transform="scale(0.015625)"/>
        <path id="DejaVuSans-72" d="M 2631 2963 
Q 2534 3019 2420 3045 
Q 2306 3072 2169 3072 
Q 1681 3072 1420 2755 
Q 1159 2438 1159 1844 
L 1159 0 
L 581 0 
L 581 3500 
L 1159 3500 
L 1159 2956 
Q 1341 3275 1631 3429 
Q 1922 3584 2338 3584 
Q 2397 3584 2469 3576 
Q 2541 3569 2628 3553 
L 2631 2963 
z
" transform="scale(0.015625)"/>
       </defs>
       <use xlink:href="#DejaVuSans-54"/>
       <use xlink:href="#DejaVuSans-65" transform="translate(44.083984 0)"/>
       <use xlink:href="#DejaVuSans-61" transform="translate(105.607422 0)"/>
       <use xlink:href="#DejaVuSans-63" transform="translate(166.886719 0)"/>
       <use xlink:href="#DejaVuSans-68" transform="translate(221.867188 0)"/>
       <use xlink:href="#DejaVuSans-65" transform="translate(285.246094 0)"/>
       <use xlink:href="#DejaVuSans-72" transform="translate(346.769531 0)"/>
      </g>
     </g>
    </g>
    <g id="xtick_2">
     <g id="line2d_2">
      <g>
       <use xlink:href="#m4b12e20ed6" x="152.574517" y="292.508094" style="stroke: #000000; stroke-width: 0.8"/>
      </g>
     </g>
     <g id="text_2">
      <!-- v3 -->
      <g transform="translate(145.942642 307.714406) scale(0.108 -0.108)">
       <defs>
        <path id="DejaVuSans-76" d="M 191 3500 
L 800 3500 
L 1894 563 
L 2988 3500 
L 3597 3500 
L 2284 0 
L 1503 0 
L 191 3500 
z
" transform="scale(0.015625)"/>
        <path id="DejaVuSans-33" d="M 2597 2516 
Q 3050 2419 3304 2112 
Q 3559 1806 3559 1356 
Q 3559 666 3084 287 
Q 2609 -91 1734 -91 
Q 1441 -91 1130 -33 
Q 819 25 488 141 
L 488 750 
Q 750 597 1062 519 
Q 1375 441 1716 441 
Q 2309 441 2620 675 
Q 2931 909 2931 1356 
Q 2931 1769 2642 2001 
Q 2353 2234 1838 2234 
L 1294 2234 
L 1294 2753 
L 1863 2753 
Q 2328 2753 2575 2939 
Q 2822 3125 2822 3475 
Q 2822 3834 2567 4026 
Q 2313 4219 1838 4219 
Q 1578 4219 1281 4162 
Q 984 4106 628 3988 
L 628 4550 
Q 988 4650 1302 4700 
Q 1616 4750 1894 4750 
Q 2613 4750 3031 4423 
Q 3450 4097 3450 3541 
Q 3450 3153 3228 2886 
Q 3006 2619 2597 2516 
z
" transform="scale(0.015625)"/>
       </defs>
       <use xlink:href="#DejaVuSans-76"/>
       <use xlink:href="#DejaVuSans-33" transform="translate(59.179688 0)"/>
      </g>
     </g>
    </g>
    <g id="xtick_3">
     <g id="line2d_3">
      <g>
       <use xlink:href="#m4b12e20ed6" x="222.863281" y="292.508094" style="stroke: #000000; stroke-width: 0.8"/>
      </g>
     </g>
     <g id="text_3">
      <!-- v4 -->
      <g transform="translate(216.231406 307.714406) scale(0.108 -0.108)">
       <defs>
        <path id="DejaVuSans-34" d="M 2419 4116 
L 825 1625 
L 2419 1625 
L 2419 4116 
z
M 2253 4666 
L 3047 4666 
L 3047 1625 
L 3713 1625 
L 3713 1100 
L 3047 1100 
L 3047 0 
L 2419 0 
L 2419 1100 
L 313 1100 
L 313 1709 
L 2253 4666 
z
" transform="scale(0.015625)"/>
       </defs>
       <use xlink:href="#DejaVuSans-76"/>
       <use xlink:href="#DejaVuSans-34" transform="translate(59.179688 0)"/>
      </g>
     </g>
    </g>
    <g id="xtick_4">
     <g id="line2d_4">
      <g>
       <use xlink:href="#m4b12e20ed6" x="293.152046" y="292.508094" style="stroke: #000000; stroke-width: 0.8"/>
      </g>
     </g>
     <g id="text_4">
      <!-- v5 -->
      <g transform="translate(286.520171 307.714406) scale(0.108 -0.108)">
       <defs>
        <path id="DejaVuSans-35" d="M 691 4666 
L 3169 4666 
L 3169 4134 
L 1269 4134 
L 1269 2991 
Q 1406 3038 1543 3061 
Q 1681 3084 1819 3084 
Q 2600 3084 3056 2656 
Q 3513 2228 3513 1497 
Q 3513 744 3044 326 
Q 2575 -91 1722 -91 
Q 1428 -91 1123 -41 
Q 819 9 494 109 
L 494 744 
Q 775 591 1075 516 
Q 1375 441 1709 441 
Q 2250 441 2565 725 
Q 2881 1009 2881 1497 
Q 2881 1984 2565 2268 
Q 2250 2553 1709 2553 
Q 1456 2553 1204 2497 
Q 953 2441 691 2322 
L 691 4666 
z
" transform="scale(0.015625)"/>
       </defs>
       <use xlink:href="#DejaVuSans-76"/>
       <use xlink:href="#DejaVuSans-35" transform="translate(59.179688 0)"/>
      </g>
     </g>
    </g>
    <g id="xtick_5">
     <g id="line2d_5">
      <g>
       <use xlink:href="#m4b12e20ed6" x="363.44081" y="292.508094" style="stroke: #000000; stroke-width: 0.8"/>
      </g>
     </g>
     <g id="text_5">
      <!-- v6 -->
      <g transform="translate(356.808935 307.714406) scale(0.108 -0.108)">
       <defs>
        <path id="DejaVuSans-36" d="M 2113 2584 
Q 1688 2584 1439 2293 
Q 1191 2003 1191 1497 
Q 1191 994 1439 701 
Q 1688 409 2113 409 
Q 2538 409 2786 701 
Q 3034 994 3034 1497 
Q 3034 2003 2786 2293 
Q 2538 2584 2113 2584 
z
M 3366 4563 
L 3366 3988 
Q 3128 4100 2886 4159 
Q 2644 4219 2406 4219 
Q 1781 4219 1451 3797 
Q 1122 3375 1075 2522 
Q 1259 2794 1537 2939 
Q 1816 3084 2150 3084 
Q 2853 3084 3261 2657 
Q 3669 2231 3669 1497 
Q 3669 778 3244 343 
Q 2819 -91 2113 -91 
Q 1303 -91 875 529 
Q 447 1150 447 2328 
Q 447 3434 972 4092 
Q 1497 4750 2381 4750 
Q 2619 4750 2861 4703 
Q 3103 4656 3366 4563 
z
" transform="scale(0.015625)"/>
       </defs>
       <use xlink:href="#DejaVuSans-76"/>
       <use xlink:href="#DejaVuSans-36" transform="translate(59.179688 0)"/>
      </g>
     </g>
    </g>
   </g>
   <g id="matplotlib.axis_2">
    <g id="ytick_1">
     <g id="line2d_6">
      <path d="M 44.259531 273.745915 
L 401.467031 273.745915 
" clip-path="url(#p1562d7626a)" style="fill: none; stroke: #d7e7f2; stroke-linecap: square"/>
     </g>
     <g id="line2d_7">
      <defs>
       <path id="m9604b9ba33" d="M 0 0 
L -3.5 0 
" style="stroke: #486581; stroke-width: 0.8"/>
      </defs>
      <g>
       <use xlink:href="#m9604b9ba33" x="44.259531" y="273.745915" style="fill: #486581; stroke: #486581; stroke-width: 0.8"/>
      </g>
     </g>
     <g id="text_6">
      <!-- 0.620 -->
      <g style="fill: #486581" transform="translate(7.2 277.735095) scale(0.105 -0.105)">
       <defs>
        <path id="DejaVuSans-30" d="M 2034 4250 
Q 1547 4250 1301 3770 
Q 1056 3291 1056 2328 
Q 1056 1369 1301 889 
Q 1547 409 2034 409 
Q 2525 409 2770 889 
Q 3016 1369 3016 2328 
Q 3016 3291 2770 3770 
Q 2525 4250 2034 4250 
z
M 2034 4750 
Q 2819 4750 3233 4129 
Q 3647 3509 3647 2328 
Q 3647 1150 3233 529 
Q 2819 -91 2034 -91 
Q 1250 -91 836 529 
Q 422 1150 422 2328 
Q 422 3509 836 4129 
Q 1250 4750 2034 4750 
z
" transform="scale(0.015625)"/>
        <path id="DejaVuSans-2e" d="M 684 794 
L 1344 794 
L 1344 0 
L 684 0 
L 684 794 
z
" transform="scale(0.015625)"/>
        <path id="DejaVuSans-32" d="M 1228 531 
L 3431 531 
L 3431 0 
L 469 0 
L 469 531 
Q 828 903 1448 1529 
Q 2069 2156 2228 2338 
Q 2531 2678 2651 2914 
Q 2772 3150 2772 3378 
Q 2772 3750 2511 3984 
Q 2250 4219 1831 4219 
Q 1534 4219 1204 4116 
Q 875 4013 500 3803 
L 500 4441 
Q 881 4594 1212 4672 
Q 1544 4750 1819 4750 
Q 2544 4750 2975 4387 
Q 3406 4025 3406 3419 
Q 3406 3131 3298 2873 
Q 3191 2616 2906 2266 
Q 2828 2175 2409 1742 
Q 1991 1309 1228 531 
z
" transform="scale(0.015625)"/>
       </defs>
       <use xlink:href="#DejaVuSans-30"/>
       <use xlink:href="#DejaVuSans-2e" transform="translate(63.623047 0)"/>
       <use xlink:href="#DejaVuSans-36" transform="translate(95.410156 0)"/>
       <use xlink:href="#DejaVuSans-32" transform="translate(159.033203 0)"/>
       <use xlink:href="#DejaVuSans-30" transform="translate(222.65625 0)"/>
      </g>
     </g>
    </g>
    <g id="ytick_2">
     <g id="line2d_8">
      <path d="M 44.259531 250.056295 
L 401.467031 250.056295 
" clip-path="url(#p1562d7626a)" style="fill: none; stroke: #d7e7f2; stroke-linecap: square"/>
     </g>
     <g id="line2d_9">
      <g>
       <use xlink:href="#m9604b9ba33" x="44.259531" y="250.056295" style="fill: #486581; stroke: #486581; stroke-width: 0.8"/>
      </g>
     </g>
     <g id="text_7">
      <!-- 0.625 -->
      <g style="fill: #486581" transform="translate(7.2 254.045475) scale(0.105 -0.105)">
       <use xlink:href="#DejaVuSans-30"/>
       <use xlink:href="#DejaVuSans-2e" transform="translate(63.623047 0)"/>
       <use xlink:href="#DejaVuSans-36" transform="translate(95.410156 0)"/>
       <use xlink:href="#DejaVuSans-32" transform="translate(159.033203 0)"/>
       <use xlink:href="#DejaVuSans-35" transform="translate(222.65625 0)"/>
      </g>
     </g>
    </g>
    <g id="ytick_3">
     <g id="line2d_10">
      <path d="M 44.259531 226.366675 
L 401.467031 226.366675 
" clip-path="url(#p1562d7626a)" style="fill: none; stroke: #d7e7f2; stroke-linecap: square"/>
     </g>
     <g id="line2d_11">
      <g>
       <use xlink:href="#m9604b9ba33" x="44.259531" y="226.366675" style="fill: #486581; stroke: #486581; stroke-width: 0.8"/>
      </g>
     </g>
     <g id="text_8">
      <!-- 0.630 -->
      <g style="fill: #486581" transform="translate(7.2 230.355855) scale(0.105 -0.105)">
       <use xlink:href="#DejaVuSans-30"/>
       <use xlink:href="#DejaVuSans-2e" transform="translate(63.623047 0)"/>
       <use xlink:href="#DejaVuSans-36" transform="translate(95.410156 0)"/>
       <use xlink:href="#DejaVuSans-33" transform="translate(159.033203 0)"/>
       <use xlink:href="#DejaVuSans-30" transform="translate(222.65625 0)"/>
      </g>
     </g>
    </g>
    <g id="ytick_4">
     <g id="line2d_12">
      <path d="M 44.259531 202.677056 
L 401.467031 202.677056 
" clip-path="url(#p1562d7626a)" style="fill: none; stroke: #d7e7f2; stroke-linecap: square"/>
     </g>
     <g id="line2d_13">
      <g>
       <use xlink:href="#m9604b9ba33" x="44.259531" y="202.677056" style="fill: #486581; stroke: #486581; stroke-width: 0.8"/>
      </g>
     </g>
     <g id="text_9">
      <!-- 0.635 -->
      <g style="fill: #486581" transform="translate(7.2 206.666235) scale(0.105 -0.105)">
       <use xlink:href="#DejaVuSans-30"/>
       <use xlink:href="#DejaVuSans-2e" transform="translate(63.623047 0)"/>
       <use xlink:href="#DejaVuSans-36" transform="translate(95.410156 0)"/>
       <use xlink:href="#DejaVuSans-33" transform="translate(159.033203 0)"/>
       <use xlink:href="#DejaVuSans-35" transform="translate(222.65625 0)"/>
      </g>
     </g>
    </g>
    <g id="ytick_5">
     <g id="line2d_14">
      <path d="M 44.259531 178.987436 
L 401.467031 178.987436 
" clip-path="url(#p1562d7626a)" style="fill: none; stroke: #d7e7f2; stroke-linecap: square"/>
     </g>
     <g id="line2d_15">
      <g>
       <use xlink:href="#m9604b9ba33" x="44.259531" y="178.987436" style="fill: #486581; stroke: #486581; stroke-width: 0.8"/>
      </g>
     </g>
     <g id="text_10">
      <!-- 0.640 -->
      <g style="fill: #486581" transform="translate(7.2 182.976616) scale(0.105 -0.105)">
       <use xlink:href="#DejaVuSans-30"/>
       <use xlink:href="#DejaVuSans-2e" transform="translate(63.623047 0)"/>
       <use xlink:href="#DejaVuSans-36" transform="translate(95.410156 0)"/>
       <use xlink:href="#DejaVuSans-34" transform="translate(159.033203 0)"/>
       <use xlink:href="#DejaVuSans-30" transform="translate(222.65625 0)"/>
      </g>
     </g>
    </g>
    <g id="ytick_6">
     <g id="line2d_16">
      <path d="M 44.259531 155.297816 
L 401.467031 155.297816 
" clip-path="url(#p1562d7626a)" style="fill: none; stroke: #d7e7f2; stroke-linecap: square"/>
     </g>
     <g id="line2d_17">
      <g>
       <use xlink:href="#m9604b9ba33" x="44.259531" y="155.297816" style="fill: #486581; stroke: #486581; stroke-width: 0.8"/>
      </g>
     </g>
     <g id="text_11">
      <!-- 0.645 -->
      <g style="fill: #486581" transform="translate(7.2 159.286996) scale(0.105 -0.105)">
       <use xlink:href="#DejaVuSans-30"/>
       <use xlink:href="#DejaVuSans-2e" transform="translate(63.623047 0)"/>
       <use xlink:href="#DejaVuSans-36" transform="translate(95.410156 0)"/>
       <use xlink:href="#DejaVuSans-34" transform="translate(159.033203 0)"/>
       <use xlink:href="#DejaVuSans-35" transform="translate(222.65625 0)"/>
      </g>
     </g>
    </g>
    <g id="ytick_7">
     <g id="line2d_18">
      <path d="M 44.259531 131.608197 
L 401.467031 131.608197 
" clip-path="url(#p1562d7626a)" style="fill: none; stroke: #d7e7f2; stroke-linecap: square"/>
     </g>
     <g id="line2d_19">
      <g>
       <use xlink:href="#m9604b9ba33" x="44.259531" y="131.608197" style="fill: #486581; stroke: #486581; stroke-width: 0.8"/>
      </g>
     </g>
     <g id="text_12">
      <!-- 0.650 -->
      <g style="fill: #486581" transform="translate(7.2 135.597376) scale(0.105 -0.105)">
       <use xlink:href="#DejaVuSans-30"/>
       <use xlink:href="#DejaVuSans-2e" transform="translate(63.623047 0)"/>
       <use xlink:href="#DejaVuSans-36" transform="translate(95.410156 0)"/>
       <use xlink:href="#DejaVuSans-35" transform="translate(159.033203 0)"/>
       <use xlink:href="#DejaVuSans-30" transform="translate(222.65625 0)"/>
      </g>
     </g>
    </g>
   </g>
   <g id="patch_8">
    <path d="M 44.259531 292.508094 
L 44.259531 108.108094 
" style="fill: none; stroke: #c8d8e8; stroke-width: 0.8; stroke-linejoin: miter; stroke-linecap: square"/>
   </g>
   <g id="patch_9">
    <path d="M 44.259531 292.508094 
L 401.467031 292.508094 
" style="fill: none; stroke: #c8d8e8; stroke-width: 0.8; stroke-linejoin: miter; stroke-linecap: square"/>
   </g>
   <g id="text_13">
    <!-- 0.6293 -->
    <g style="fill: #334e68" transform="translate(65.840159 225.620887) scale(0.094 -0.094)">
     <defs>
      <path id="DejaVuSans-39" d="M 703 97 
L 703 672 
Q 941 559 1184 500 
Q 1428 441 1663 441 
Q 2288 441 2617 861 
Q 2947 1281 2994 2138 
Q 2813 1869 2534 1725 
Q 2256 1581 1919 1581 
Q 1219 1581 811 2004 
Q 403 2428 403 3163 
Q 403 3881 828 4315 
Q 1253 4750 1959 4750 
Q 2769 4750 3195 4129 
Q 3622 3509 3622 2328 
Q 3622 1225 3098 567 
Q 2575 -91 1691 -91 
Q 1453 -91 1209 -44 
Q 966 3 703 97 
z
M 1959 2075 
Q 2384 2075 2632 2365 
Q 2881 2656 2881 3163 
Q 2881 3666 2632 3958 
Q 2384 4250 1959 4250 
Q 1534 4250 1286 3958 
Q 1038 3666 1038 3163 
Q 1038 2656 1286 2365 
Q 1534 2075 1959 2075 
z
" transform="scale(0.015625)"/>
     </defs>
     <use xlink:href="#DejaVuSans-30"/>
     <use xlink:href="#DejaVuSans-2e" transform="translate(63.623047 0)"/>
     <use xlink:href="#DejaVuSans-36" transform="translate(95.410156 0)"/>
     <use xlink:href="#DejaVuSans-32" transform="translate(159.033203 0)"/>
     <use xlink:href="#DejaVuSans-39" transform="translate(222.65625 0)"/>
     <use xlink:href="#DejaVuSans-33" transform="translate(286.279297 0)"/>
    </g>
   </g>
   <g id="text_14">
    <!-- 0.6469 -->
    <g style="fill: #334e68" transform="translate(136.128923 142.233426) scale(0.094 -0.094)">
     <use xlink:href="#DejaVuSans-30"/>
     <use xlink:href="#DejaVuSans-2e" transform="translate(63.623047 0)"/>
     <use xlink:href="#DejaVuSans-36" transform="translate(95.410156 0)"/>
     <use xlink:href="#DejaVuSans-34" transform="translate(159.033203 0)"/>
     <use xlink:href="#DejaVuSans-36" transform="translate(222.65625 0)"/>
     <use xlink:href="#DejaVuSans-39" transform="translate(286.279297 0)"/>
    </g>
   </g>
   <g id="text_15">
    <!-- 0.6216 -->
    <g style="fill: #334e68" transform="translate(206.417687 262.102902) scale(0.094 -0.094)">
     <defs>
      <path id="DejaVuSans-31" d="M 794 531 
L 1825 531 
L 1825 4091 
L 703 3866 
L 703 4441 
L 1819 4666 
L 2450 4666 
L 2450 531 
L 3481 531 
L 3481 0 
L 794 0 
L 794 531 
z
" transform="scale(0.015625)"/>
     </defs>
     <use xlink:href="#DejaVuSans-30"/>
     <use xlink:href="#DejaVuSans-2e" transform="translate(63.623047 0)"/>
     <use xlink:href="#DejaVuSans-36" transform="translate(95.410156 0)"/>
     <use xlink:href="#DejaVuSans-32" transform="translate(159.033203 0)"/>
     <use xlink:href="#DejaVuSans-31" transform="translate(222.65625 0)"/>
     <use xlink:href="#DejaVuSans-36" transform="translate(286.279297 0)"/>
    </g>
   </g>
   <g id="text_16">
    <!-- 0.6298 -->
    <g style="fill: #334e68" transform="translate(276.706452 223.251925) scale(0.094 -0.094)">
     <defs>
      <path id="DejaVuSans-38" d="M 2034 2216 
Q 1584 2216 1326 1975 
Q 1069 1734 1069 1313 
Q 1069 891 1326 650 
Q 1584 409 2034 409 
Q 2484 409 2743 651 
Q 3003 894 3003 1313 
Q 3003 1734 2745 1975 
Q 2488 2216 2034 2216 
z
M 1403 2484 
Q 997 2584 770 2862 
Q 544 3141 544 3541 
Q 544 4100 942 4425 
Q 1341 4750 2034 4750 
Q 2731 4750 3128 4425 
Q 3525 4100 3525 3541 
Q 3525 3141 3298 2862 
Q 3072 2584 2669 2484 
Q 3125 2378 3379 2068 
Q 3634 1759 3634 1313 
Q 3634 634 3220 271 
Q 2806 -91 2034 -91 
Q 1263 -91 848 271 
Q 434 634 434 1313 
Q 434 1759 690 2068 
Q 947 2378 1403 2484 
z
M 1172 3481 
Q 1172 3119 1398 2916 
Q 1625 2713 2034 2713 
Q 2441 2713 2670 2916 
Q 2900 3119 2900 3481 
Q 2900 3844 2670 4047 
Q 2441 4250 2034 4250 
Q 1625 4250 1398 4047 
Q 1172 3844 1172 3481 
z
" transform="scale(0.015625)"/>
     </defs>
     <use xlink:href="#DejaVuSans-30"/>
     <use xlink:href="#DejaVuSans-2e" transform="translate(63.623047 0)"/>
     <use xlink:href="#DejaVuSans-36" transform="translate(95.410156 0)"/>
     <use xlink:href="#DejaVuSans-32" transform="translate(159.033203 0)"/>
     <use xlink:href="#DejaVuSans-39" transform="translate(222.65625 0)"/>
     <use xlink:href="#DejaVuSans-38" transform="translate(286.279297 0)"/>
    </g>
   </g>
   <g id="text_17">
    <!-- 0.6494 -->
    <g style="fill: #334e68" transform="translate(346.995216 130.388616) scale(0.094 -0.094)">
     <use xlink:href="#DejaVuSans-30"/>
     <use xlink:href="#DejaVuSans-2e" transform="translate(63.623047 0)"/>
     <use xlink:href="#DejaVuSans-36" transform="translate(95.410156 0)"/>
     <use xlink:href="#DejaVuSans-34" transform="translate(159.033203 0)"/>
     <use xlink:href="#DejaVuSans-39" transform="translate(222.65625 0)"/>
     <use xlink:href="#DejaVuSans-34" transform="translate(286.279297 0)"/>
    </g>
   </g>
   <g id="text_18">
    <!-- Frozen test RMSE -->
    <g style="fill: #12344d" transform="translate(148.869922 96.108094) scale(0.15 -0.15)">
     <defs>
      <path id="DejaVuSans-Bold-46" d="M 588 4666 
L 3834 4666 
L 3834 3756 
L 1791 3756 
L 1791 2888 
L 3713 2888 
L 3713 1978 
L 1791 1978 
L 1791 0 
L 588 0 
L 588 4666 
z
" transform="scale(0.015625)"/>
      <path id="DejaVuSans-Bold-72" d="M 3138 2547 
Q 2991 2616 2845 2648 
Q 2700 2681 2553 2681 
Q 2122 2681 1889 2404 
Q 1656 2128 1656 1613 
L 1656 0 
L 538 0 
L 538 3500 
L 1656 3500 
L 1656 2925 
Q 1872 3269 2151 3426 
Q 2431 3584 2822 3584 
Q 2878 3584 2943 3579 
Q 3009 3575 3134 3559 
L 3138 2547 
z
" transform="scale(0.015625)"/>
      <path id="DejaVuSans-Bold-6f" d="M 2203 2784 
Q 1831 2784 1636 2517 
Q 1441 2250 1441 1747 
Q 1441 1244 1636 976 
Q 1831 709 2203 709 
Q 2569 709 2762 976 
Q 2956 1244 2956 1747 
Q 2956 2250 2762 2517 
Q 2569 2784 2203 2784 
z
M 2203 3584 
Q 3106 3584 3614 3096 
Q 4122 2609 4122 1747 
Q 4122 884 3614 396 
Q 3106 -91 2203 -91 
Q 1297 -91 786 396 
Q 275 884 275 1747 
Q 275 2609 786 3096 
Q 1297 3584 2203 3584 
z
" transform="scale(0.015625)"/>
      <path id="DejaVuSans-Bold-7a" d="M 366 3500 
L 3419 3500 
L 3419 2719 
L 1575 800 
L 3419 800 
L 3419 0 
L 288 0 
L 288 781 
L 2131 2700 
L 366 2700 
L 366 3500 
z
" transform="scale(0.015625)"/>
      <path id="DejaVuSans-Bold-65" d="M 4031 1759 
L 4031 1441 
L 1416 1441 
Q 1456 1047 1700 850 
Q 1944 653 2381 653 
Q 2734 653 3104 758 
Q 3475 863 3866 1075 
L 3866 213 
Q 3469 63 3072 -14 
Q 2675 -91 2278 -91 
Q 1328 -91 801 392 
Q 275 875 275 1747 
Q 275 2603 792 3093 
Q 1309 3584 2216 3584 
Q 3041 3584 3536 3087 
Q 4031 2591 4031 1759 
z
M 2881 2131 
Q 2881 2450 2695 2645 
Q 2509 2841 2209 2841 
Q 1884 2841 1681 2658 
Q 1478 2475 1428 2131 
L 2881 2131 
z
" transform="scale(0.015625)"/>
      <path id="DejaVuSans-Bold-6e" d="M 4056 2131 
L 4056 0 
L 2931 0 
L 2931 347 
L 2931 1631 
Q 2931 2084 2911 2256 
Q 2891 2428 2841 2509 
Q 2775 2619 2662 2680 
Q 2550 2741 2406 2741 
Q 2056 2741 1856 2470 
Q 1656 2200 1656 1722 
L 1656 0 
L 538 0 
L 538 3500 
L 1656 3500 
L 1656 2988 
Q 1909 3294 2193 3439 
Q 2478 3584 2822 3584 
Q 3428 3584 3742 3212 
Q 4056 2841 4056 2131 
z
" transform="scale(0.015625)"/>
      <path id="DejaVuSans-Bold-20" transform="scale(0.015625)"/>
      <path id="DejaVuSans-Bold-74" d="M 1759 4494 
L 1759 3500 
L 2913 3500 
L 2913 2700 
L 1759 2700 
L 1759 1216 
Q 1759 972 1856 886 
Q 1953 800 2241 800 
L 2816 800 
L 2816 0 
L 1856 0 
Q 1194 0 917 276 
Q 641 553 641 1216 
L 641 2700 
L 84 2700 
L 84 3500 
L 641 3500 
L 641 4494 
L 1759 4494 
z
" transform="scale(0.015625)"/>
      <path id="DejaVuSans-Bold-73" d="M 3272 3391 
L 3272 2541 
Q 2913 2691 2578 2766 
Q 2244 2841 1947 2841 
Q 1628 2841 1473 2761 
Q 1319 2681 1319 2516 
Q 1319 2381 1436 2309 
Q 1553 2238 1856 2203 
L 2053 2175 
Q 2913 2066 3209 1816 
Q 3506 1566 3506 1031 
Q 3506 472 3093 190 
Q 2681 -91 1863 -91 
Q 1516 -91 1145 -36 
Q 775 19 384 128 
L 384 978 
Q 719 816 1070 734 
Q 1422 653 1784 653 
Q 2113 653 2278 743 
Q 2444 834 2444 1013 
Q 2444 1163 2330 1236 
Q 2216 1309 1875 1350 
L 1678 1375 
Q 931 1469 631 1722 
Q 331 1975 331 2491 
Q 331 3047 712 3315 
Q 1094 3584 1881 3584 
Q 2191 3584 2531 3537 
Q 2872 3491 3272 3391 
z
" transform="scale(0.015625)"/>
      <path id="DejaVuSans-Bold-52" d="M 2297 2597 
Q 2675 2597 2839 2737 
Q 3003 2878 3003 3200 
Q 3003 3519 2839 3656 
Q 2675 3794 2297 3794 
L 1791 3794 
L 1791 2597 
L 2297 2597 
z
M 1791 1766 
L 1791 0 
L 588 0 
L 588 4666 
L 2425 4666 
Q 3347 4666 3776 4356 
Q 4206 4047 4206 3378 
Q 4206 2916 3982 2619 
Q 3759 2322 3309 2181 
Q 3556 2125 3751 1926 
Q 3947 1728 4147 1325 
L 4800 0 
L 3519 0 
L 2950 1159 
Q 2778 1509 2601 1637 
Q 2425 1766 2131 1766 
L 1791 1766 
z
" transform="scale(0.015625)"/>
      <path id="DejaVuSans-Bold-4d" d="M 588 4666 
L 2119 4666 
L 3181 2169 
L 4250 4666 
L 5778 4666 
L 5778 0 
L 4641 0 
L 4641 3413 
L 3566 897 
L 2803 897 
L 1728 3413 
L 1728 0 
L 588 0 
L 588 4666 
z
" transform="scale(0.015625)"/>
      <path id="DejaVuSans-Bold-53" d="M 3834 4519 
L 3834 3531 
Q 3450 3703 3084 3790 
Q 2719 3878 2394 3878 
Q 1963 3878 1756 3759 
Q 1550 3641 1550 3391 
Q 1550 3203 1689 3098 
Q 1828 2994 2194 2919 
L 2706 2816 
Q 3484 2659 3812 2340 
Q 4141 2022 4141 1434 
Q 4141 663 3683 286 
Q 3225 -91 2284 -91 
Q 1841 -91 1394 -6 
Q 947 78 500 244 
L 500 1259 
Q 947 1022 1364 901 
Q 1781 781 2169 781 
Q 2563 781 2772 912 
Q 2981 1044 2981 1288 
Q 2981 1506 2839 1625 
Q 2697 1744 2272 1838 
L 1806 1941 
Q 1106 2091 782 2419 
Q 459 2747 459 3303 
Q 459 4000 909 4375 
Q 1359 4750 2203 4750 
Q 2588 4750 2994 4692 
Q 3400 4634 3834 4519 
z
" transform="scale(0.015625)"/>
      <path id="DejaVuSans-Bold-45" d="M 588 4666 
L 3834 4666 
L 3834 3756 
L 1791 3756 
L 1791 2888 
L 3713 2888 
L 3713 1978 
L 1791 1978 
L 1791 909 
L 3903 909 
L 3903 0 
L 588 0 
L 588 4666 
z
" transform="scale(0.015625)"/>
     </defs>
     <use xlink:href="#DejaVuSans-Bold-46"/>
     <use xlink:href="#DejaVuSans-Bold-72" transform="translate(61.935547 0)"/>
     <use xlink:href="#DejaVuSans-Bold-6f" transform="translate(111.251953 0)"/>
     <use xlink:href="#DejaVuSans-Bold-7a" transform="translate(179.953125 0)"/>
     <use xlink:href="#DejaVuSans-Bold-65" transform="translate(238.15625 0)"/>
     <use xlink:href="#DejaVuSans-Bold-6e" transform="translate(305.978516 0)"/>
     <use xlink:href="#DejaVuSans-Bold-20" transform="translate(377.169922 0)"/>
     <use xlink:href="#DejaVuSans-Bold-74" transform="translate(411.984375 0)"/>
     <use xlink:href="#DejaVuSans-Bold-65" transform="translate(459.787109 0)"/>
     <use xlink:href="#DejaVuSans-Bold-73" transform="translate(527.609375 0)"/>
     <use xlink:href="#DejaVuSans-Bold-74" transform="translate(587.130859 0)"/>
     <use xlink:href="#DejaVuSans-Bold-20" transform="translate(634.933594 0)"/>
     <use xlink:href="#DejaVuSans-Bold-52" transform="translate(669.748047 0)"/>
     <use xlink:href="#DejaVuSans-Bold-4d" transform="translate(746.75 0)"/>
     <use xlink:href="#DejaVuSans-Bold-53" transform="translate(846.261719 0)"/>
     <use xlink:href="#DejaVuSans-Bold-45" transform="translate(918.283203 0)"/>
    </g>
   </g>
  </g>
  <g id="axes_2">
   <g id="patch_10">
    <path d="M 449.282031 292.508094 
L 806.489531 292.508094 
L 806.489531 108.108094 
L 449.282031 108.108094 
z
" style="fill: #ffffff"/>
   </g>
   <g id="patch_11">
    <path d="M 465.518736 2413.47912 
L 509.09777 2413.47912 
L 509.09777 202.163225 
L 465.518736 202.163225 
z
" clip-path="url(#p6853500512)" style="fill: #0b4f6c"/>
   </g>
   <g id="patch_12">
    <path d="M 535.8075 2413.47912 
L 579.386534 2413.47912 
L 579.386534 147.436866 
L 535.8075 147.436866 
z
" clip-path="url(#p6853500512)" style="fill: #7c3aed"/>
   </g>
   <g id="patch_13">
    <path d="M 606.096264 2413.47912 
L 649.675298 2413.47912 
L 649.675298 266.165237 
L 606.096264 266.165237 
z
" clip-path="url(#p6853500512)" style="fill: #c47f00; stroke: #12344d; stroke-width: 2.2; stroke-linejoin: miter"/>
   </g>
   <g id="patch_14">
    <path d="M 676.385029 2413.47912 
L 719.964062 2413.47912 
L 719.964062 241.584754 
L 676.385029 241.584754 
z
" clip-path="url(#p6853500512)" style="fill: #c2410c"/>
   </g>
   <g id="patch_15">
    <path d="M 746.673793 2413.47912 
L 790.252827 2413.47912 
L 790.252827 134.450951 
L 746.673793 134.450951 
z
" clip-path="url(#p6853500512)" style="fill: #178f87"/>
   </g>
   <g id="matplotlib.axis_3">
    <g id="xtick_6">
     <g id="line2d_20">
      <g>
       <use xlink:href="#m4b12e20ed6" x="487.308253" y="292.508094" style="stroke: #000000; stroke-width: 0.8"/>
      </g>
     </g>
     <g id="text_19">
      <!-- Teacher -->
      <g transform="translate(466.362159 307.714406) scale(0.108 -0.108)">
       <use xlink:href="#DejaVuSans-54"/>
       <use xlink:href="#DejaVuSans-65" transform="translate(44.083984 0)"/>
       <use xlink:href="#DejaVuSans-61" transform="translate(105.607422 0)"/>
       <use xlink:href="#DejaVuSans-63" transform="translate(166.886719 0)"/>
       <use xlink:href="#DejaVuSans-68" transform="translate(221.867188 0)"/>
       <use xlink:href="#DejaVuSans-65" transform="translate(285.246094 0)"/>
       <use xlink:href="#DejaVuSans-72" transform="translate(346.769531 0)"/>
      </g>
     </g>
    </g>
    <g id="xtick_7">
     <g id="line2d_21">
      <g>
       <use xlink:href="#m4b12e20ed6" x="557.597017" y="292.508094" style="stroke: #000000; stroke-width: 0.8"/>
      </g>
     </g>
     <g id="text_20">
      <!-- v3 -->
      <g transform="translate(550.965142 307.714406) scale(0.108 -0.108)">
       <use xlink:href="#DejaVuSans-76"/>
       <use xlink:href="#DejaVuSans-33" transform="translate(59.179688 0)"/>
      </g>
     </g>
    </g>
    <g id="xtick_8">
     <g id="line2d_22">
      <g>
       <use xlink:href="#m4b12e20ed6" x="627.885781" y="292.508094" style="stroke: #000000; stroke-width: 0.8"/>
      </g>
     </g>
     <g id="text_21">
      <!-- v4 -->
      <g transform="translate(621.253906 307.714406) scale(0.108 -0.108)">
       <use xlink:href="#DejaVuSans-76"/>
       <use xlink:href="#DejaVuSans-34" transform="translate(59.179688 0)"/>
      </g>
     </g>
    </g>
    <g id="xtick_9">
     <g id="line2d_23">
      <g>
       <use xlink:href="#m4b12e20ed6" x="698.174546" y="292.508094" style="stroke: #000000; stroke-width: 0.8"/>
      </g>
     </g>
     <g id="text_22">
      <!-- v5 -->
      <g transform="translate(691.542671 307.714406) scale(0.108 -0.108)">
       <use xlink:href="#DejaVuSans-76"/>
       <use xlink:href="#DejaVuSans-35" transform="translate(59.179688 0)"/>
      </g>
     </g>
    </g>
    <g id="xtick_10">
     <g id="line2d_24">
      <g>
       <use xlink:href="#m4b12e20ed6" x="768.46331" y="292.508094" style="stroke: #000000; stroke-width: 0.8"/>
      </g>
     </g>
     <g id="text_23">
      <!-- v6 -->
      <g transform="translate(761.831435 307.714406) scale(0.108 -0.108)">
       <use xlink:href="#DejaVuSans-76"/>
       <use xlink:href="#DejaVuSans-36" transform="translate(59.179688 0)"/>
      </g>
     </g>
    </g>
   </g>
   <g id="matplotlib.axis_4">
    <g id="ytick_8">
     <g id="line2d_25">
      <path d="M 449.282031 280.078717 
L 806.489531 280.078717 
" clip-path="url(#p6853500512)" style="fill: none; stroke: #d7e7f2; stroke-linecap: square"/>
     </g>
     <g id="line2d_26">
      <g>
       <use xlink:href="#m9604b9ba33" x="449.282031" y="280.078717" style="fill: #486581; stroke: #486581; stroke-width: 0.8"/>
      </g>
     </g>
     <g id="text_24">
      <!-- 0.460 -->
      <g style="fill: #486581" transform="translate(412.2225 284.067897) scale(0.105 -0.105)">
       <use xlink:href="#DejaVuSans-30"/>
       <use xlink:href="#DejaVuSans-2e" transform="translate(63.623047 0)"/>
       <use xlink:href="#DejaVuSans-34" transform="translate(95.410156 0)"/>
       <use xlink:href="#DejaVuSans-36" transform="translate(159.033203 0)"/>
       <use xlink:href="#DejaVuSans-30" transform="translate(222.65625 0)"/>
      </g>
     </g>
    </g>
    <g id="ytick_9">
     <g id="line2d_27">
      <path d="M 449.282031 256.889583 
L 806.489531 256.889583 
" clip-path="url(#p6853500512)" style="fill: none; stroke: #d7e7f2; stroke-linecap: square"/>
     </g>
     <g id="line2d_28">
      <g>
       <use xlink:href="#m9604b9ba33" x="449.282031" y="256.889583" style="fill: #486581; stroke: #486581; stroke-width: 0.8"/>
      </g>
     </g>
     <g id="text_25">
      <!-- 0.465 -->
      <g style="fill: #486581" transform="translate(412.2225 260.878762) scale(0.105 -0.105)">
       <use xlink:href="#DejaVuSans-30"/>
       <use xlink:href="#DejaVuSans-2e" transform="translate(63.623047 0)"/>
       <use xlink:href="#DejaVuSans-34" transform="translate(95.410156 0)"/>
       <use xlink:href="#DejaVuSans-36" transform="translate(159.033203 0)"/>
       <use xlink:href="#DejaVuSans-35" transform="translate(222.65625 0)"/>
      </g>
     </g>
    </g>
    <g id="ytick_10">
     <g id="line2d_29">
      <path d="M 449.282031 233.700448 
L 806.489531 233.700448 
" clip-path="url(#p6853500512)" style="fill: none; stroke: #d7e7f2; stroke-linecap: square"/>
     </g>
     <g id="line2d_30">
      <g>
       <use xlink:href="#m9604b9ba33" x="449.282031" y="233.700448" style="fill: #486581; stroke: #486581; stroke-width: 0.8"/>
      </g>
     </g>
     <g id="text_26">
      <!-- 0.470 -->
      <g style="fill: #486581" transform="translate(412.2225 237.689628) scale(0.105 -0.105)">
       <defs>
        <path id="DejaVuSans-37" d="M 525 4666 
L 3525 4666 
L 3525 4397 
L 1831 0 
L 1172 0 
L 2766 4134 
L 525 4134 
L 525 4666 
z
" transform="scale(0.015625)"/>
       </defs>
       <use xlink:href="#DejaVuSans-30"/>
       <use xlink:href="#DejaVuSans-2e" transform="translate(63.623047 0)"/>
       <use xlink:href="#DejaVuSans-34" transform="translate(95.410156 0)"/>
       <use xlink:href="#DejaVuSans-37" transform="translate(159.033203 0)"/>
       <use xlink:href="#DejaVuSans-30" transform="translate(222.65625 0)"/>
      </g>
     </g>
    </g>
    <g id="ytick_11">
     <g id="line2d_31">
      <path d="M 449.282031 210.511313 
L 806.489531 210.511313 
" clip-path="url(#p6853500512)" style="fill: none; stroke: #d7e7f2; stroke-linecap: square"/>
     </g>
     <g id="line2d_32">
      <g>
       <use xlink:href="#m9604b9ba33" x="449.282031" y="210.511313" style="fill: #486581; stroke: #486581; stroke-width: 0.8"/>
      </g>
     </g>
     <g id="text_27">
      <!-- 0.475 -->
      <g style="fill: #486581" transform="translate(412.2225 214.500493) scale(0.105 -0.105)">
       <use xlink:href="#DejaVuSans-30"/>
       <use xlink:href="#DejaVuSans-2e" transform="translate(63.623047 0)"/>
       <use xlink:href="#DejaVuSans-34" transform="translate(95.410156 0)"/>
       <use xlink:href="#DejaVuSans-37" transform="translate(159.033203 0)"/>
       <use xlink:href="#DejaVuSans-35" transform="translate(222.65625 0)"/>
      </g>
     </g>
    </g>
    <g id="ytick_12">
     <g id="line2d_33">
      <path d="M 449.282031 187.322178 
L 806.489531 187.322178 
" clip-path="url(#p6853500512)" style="fill: none; stroke: #d7e7f2; stroke-linecap: square"/>
     </g>
     <g id="line2d_34">
      <g>
       <use xlink:href="#m9604b9ba33" x="449.282031" y="187.322178" style="fill: #486581; stroke: #486581; stroke-width: 0.8"/>
      </g>
     </g>
     <g id="text_28">
      <!-- 0.480 -->
      <g style="fill: #486581" transform="translate(412.2225 191.311358) scale(0.105 -0.105)">
       <use xlink:href="#DejaVuSans-30"/>
       <use xlink:href="#DejaVuSans-2e" transform="translate(63.623047 0)"/>
       <use xlink:href="#DejaVuSans-34" transform="translate(95.410156 0)"/>
       <use xlink:href="#DejaVuSans-38" transform="translate(159.033203 0)"/>
       <use xlink:href="#DejaVuSans-30" transform="translate(222.65625 0)"/>
      </g>
     </g>
    </g>
    <g id="ytick_13">
     <g id="line2d_35">
      <path d="M 449.282031 164.133043 
L 806.489531 164.133043 
" clip-path="url(#p6853500512)" style="fill: none; stroke: #d7e7f2; stroke-linecap: square"/>
     </g>
     <g id="line2d_36">
      <g>
       <use xlink:href="#m9604b9ba33" x="449.282031" y="164.133043" style="fill: #486581; stroke: #486581; stroke-width: 0.8"/>
      </g>
     </g>
     <g id="text_29">
      <!-- 0.485 -->
      <g style="fill: #486581" transform="translate(412.2225 168.122223) scale(0.105 -0.105)">
       <use xlink:href="#DejaVuSans-30"/>
       <use xlink:href="#DejaVuSans-2e" transform="translate(63.623047 0)"/>
       <use xlink:href="#DejaVuSans-34" transform="translate(95.410156 0)"/>
       <use xlink:href="#DejaVuSans-38" transform="translate(159.033203 0)"/>
       <use xlink:href="#DejaVuSans-35" transform="translate(222.65625 0)"/>
      </g>
     </g>
    </g>
    <g id="ytick_14">
     <g id="line2d_37">
      <path d="M 449.282031 140.943909 
L 806.489531 140.943909 
" clip-path="url(#p6853500512)" style="fill: none; stroke: #d7e7f2; stroke-linecap: square"/>
     </g>
     <g id="line2d_38">
      <g>
       <use xlink:href="#m9604b9ba33" x="449.282031" y="140.943909" style="fill: #486581; stroke: #486581; stroke-width: 0.8"/>
      </g>
     </g>
     <g id="text_30">
      <!-- 0.490 -->
      <g style="fill: #486581" transform="translate(412.2225 144.933088) scale(0.105 -0.105)">
       <use xlink:href="#DejaVuSans-30"/>
       <use xlink:href="#DejaVuSans-2e" transform="translate(63.623047 0)"/>
       <use xlink:href="#DejaVuSans-34" transform="translate(95.410156 0)"/>
       <use xlink:href="#DejaVuSans-39" transform="translate(159.033203 0)"/>
       <use xlink:href="#DejaVuSans-30" transform="translate(222.65625 0)"/>
      </g>
     </g>
    </g>
    <g id="ytick_15">
     <g id="line2d_39">
      <path d="M 449.282031 117.754774 
L 806.489531 117.754774 
" clip-path="url(#p6853500512)" style="fill: none; stroke: #d7e7f2; stroke-linecap: square"/>
     </g>
     <g id="line2d_40">
      <g>
       <use xlink:href="#m9604b9ba33" x="449.282031" y="117.754774" style="fill: #486581; stroke: #486581; stroke-width: 0.8"/>
      </g>
     </g>
     <g id="text_31">
      <!-- 0.495 -->
      <g style="fill: #486581" transform="translate(412.2225 121.743954) scale(0.105 -0.105)">
       <use xlink:href="#DejaVuSans-30"/>
       <use xlink:href="#DejaVuSans-2e" transform="translate(63.623047 0)"/>
       <use xlink:href="#DejaVuSans-34" transform="translate(95.410156 0)"/>
       <use xlink:href="#DejaVuSans-39" transform="translate(159.033203 0)"/>
       <use xlink:href="#DejaVuSans-35" transform="translate(222.65625 0)"/>
      </g>
     </g>
    </g>
   </g>
   <g id="patch_16">
    <path d="M 449.282031 292.508094 
L 449.282031 108.108094 
" style="fill: none; stroke: #c8d8e8; stroke-width: 0.8; stroke-linejoin: miter; stroke-linecap: square"/>
   </g>
   <g id="patch_17">
    <path d="M 449.282031 292.508094 
L 806.489531 292.508094 
" style="fill: none; stroke: #c8d8e8; stroke-width: 0.8; stroke-linejoin: miter; stroke-linecap: square"/>
   </g>
   <g id="text_32">
    <!-- 0.4768 -->
    <g style="fill: #334e68" transform="translate(470.862659 198.10089) scale(0.094 -0.094)">
     <use xlink:href="#DejaVuSans-30"/>
     <use xlink:href="#DejaVuSans-2e" transform="translate(63.623047 0)"/>
     <use xlink:href="#DejaVuSans-34" transform="translate(95.410156 0)"/>
     <use xlink:href="#DejaVuSans-37" transform="translate(159.033203 0)"/>
     <use xlink:href="#DejaVuSans-36" transform="translate(222.65625 0)"/>
     <use xlink:href="#DejaVuSans-38" transform="translate(286.279297 0)"/>
    </g>
   </g>
   <g id="text_33">
    <!-- 0.4886 -->
    <g style="fill: #334e68" transform="translate(541.151423 143.374532) scale(0.094 -0.094)">
     <use xlink:href="#DejaVuSans-30"/>
     <use xlink:href="#DejaVuSans-2e" transform="translate(63.623047 0)"/>
     <use xlink:href="#DejaVuSans-34" transform="translate(95.410156 0)"/>
     <use xlink:href="#DejaVuSans-38" transform="translate(159.033203 0)"/>
     <use xlink:href="#DejaVuSans-38" transform="translate(222.65625 0)"/>
     <use xlink:href="#DejaVuSans-36" transform="translate(286.279297 0)"/>
    </g>
   </g>
   <g id="text_34">
    <!-- 0.4630 -->
    <g style="fill: #334e68" transform="translate(611.440187 262.102902) scale(0.094 -0.094)">
     <use xlink:href="#DejaVuSans-30"/>
     <use xlink:href="#DejaVuSans-2e" transform="translate(63.623047 0)"/>
     <use xlink:href="#DejaVuSans-34" transform="translate(95.410156 0)"/>
     <use xlink:href="#DejaVuSans-36" transform="translate(159.033203 0)"/>
     <use xlink:href="#DejaVuSans-33" transform="translate(222.65625 0)"/>
     <use xlink:href="#DejaVuSans-30" transform="translate(286.279297 0)"/>
    </g>
   </g>
   <g id="text_35">
    <!-- 0.4683 -->
    <g style="fill: #334e68" transform="translate(681.728952 237.522419) scale(0.094 -0.094)">
     <use xlink:href="#DejaVuSans-30"/>
     <use xlink:href="#DejaVuSans-2e" transform="translate(63.623047 0)"/>
     <use xlink:href="#DejaVuSans-34" transform="translate(95.410156 0)"/>
     <use xlink:href="#DejaVuSans-36" transform="translate(159.033203 0)"/>
     <use xlink:href="#DejaVuSans-38" transform="translate(222.65625 0)"/>
     <use xlink:href="#DejaVuSans-33" transform="translate(286.279297 0)"/>
    </g>
   </g>
   <g id="text_36">
    <!-- 0.4914 -->
    <g style="fill: #334e68" transform="translate(752.017716 130.388616) scale(0.094 -0.094)">
     <use xlink:href="#DejaVuSans-30"/>
     <use xlink:href="#DejaVuSans-2e" transform="translate(63.623047 0)"/>
     <use xlink:href="#DejaVuSans-34" transform="translate(95.410156 0)"/>
     <use xlink:href="#DejaVuSans-39" transform="translate(159.033203 0)"/>
     <use xlink:href="#DejaVuSans-31" transform="translate(222.65625 0)"/>
     <use xlink:href="#DejaVuSans-34" transform="translate(286.279297 0)"/>
    </g>
   </g>
   <g id="text_37">
    <!-- Frozen test MAE -->
    <g style="fill: #12344d" transform="translate(559.264297 96.108094) scale(0.15 -0.15)">
     <defs>
      <path id="DejaVuSans-Bold-41" d="M 3419 850 
L 1538 850 
L 1241 0 
L 31 0 
L 1759 4666 
L 3194 4666 
L 4922 0 
L 3713 0 
L 3419 850 
z
M 1838 1716 
L 3116 1716 
L 2478 3572 
L 1838 1716 
z
" transform="scale(0.015625)"/>
     </defs>
     <use xlink:href="#DejaVuSans-Bold-46"/>
     <use xlink:href="#DejaVuSans-Bold-72" transform="translate(61.935547 0)"/>
     <use xlink:href="#DejaVuSans-Bold-6f" transform="translate(111.251953 0)"/>
     <use xlink:href="#DejaVuSans-Bold-7a" transform="translate(179.953125 0)"/>
     <use xlink:href="#DejaVuSans-Bold-65" transform="translate(238.15625 0)"/>
     <use xlink:href="#DejaVuSans-Bold-6e" transform="translate(305.978516 0)"/>
     <use xlink:href="#DejaVuSans-Bold-20" transform="translate(377.169922 0)"/>
     <use xlink:href="#DejaVuSans-Bold-74" transform="translate(411.984375 0)"/>
     <use xlink:href="#DejaVuSans-Bold-65" transform="translate(459.787109 0)"/>
     <use xlink:href="#DejaVuSans-Bold-73" transform="translate(527.609375 0)"/>
     <use xlink:href="#DejaVuSans-Bold-74" transform="translate(587.130859 0)"/>
     <use xlink:href="#DejaVuSans-Bold-20" transform="translate(634.933594 0)"/>
     <use xlink:href="#DejaVuSans-Bold-4d" transform="translate(669.748047 0)"/>
     <use xlink:href="#DejaVuSans-Bold-41" transform="translate(769.259766 0)"/>
     <use xlink:href="#DejaVuSans-Bold-45" transform="translate(846.652344 0)"/>
    </g>
   </g>
  </g>
  <g id="axes_3">
   <g id="patch_18">
    <path d="M 44.259531 529.028094 
L 401.467031 529.028094 
L 401.467031 344.628094 
L 44.259531 344.628094 
z
" style="fill: #ffffff"/>
   </g>
   <g id="patch_19">
    <path d="M 60.496236 2891.503418 
L 104.07527 2891.503418 
L 104.07527 370.970951 
L 60.496236 370.970951 
z
" clip-path="url(#pc2b4fce42d)" style="fill: #0b4f6c"/>
   </g>
   <g id="patch_20">
    <path d="M 130.785 2891.503418 
L 174.364034 2891.503418 
L 174.364034 493.934987 
L 130.785 493.934987 
z
" clip-path="url(#pc2b4fce42d)" style="fill: #7c3aed"/>
   </g>
   <g id="patch_21">
    <path d="M 201.073764 2891.503418 
L 244.652798 2891.503418 
L 244.652798 493.474447 
L 201.073764 493.474447 
z
" clip-path="url(#pc2b4fce42d)" style="fill: #c47f00"/>
   </g>
   <g id="patch_22">
    <path d="M 271.362529 2891.503418 
L 314.941562 2891.503418 
L 314.941562 481.960961 
L 271.362529 481.960961 
z
" clip-path="url(#pc2b4fce42d)" style="fill: #c2410c"/>
   </g>
   <g id="patch_23">
    <path d="M 341.651293 2891.503418 
L 385.230327 2891.503418 
L 385.230327 502.685237 
L 341.651293 502.685237 
z
" clip-path="url(#pc2b4fce42d)" style="fill: #178f87; stroke: #12344d; stroke-width: 2.2; stroke-linejoin: miter"/>
   </g>
   <g id="matplotlib.axis_5">
    <g id="xtick_11">
     <g id="line2d_41">
      <g>
       <use xlink:href="#m4b12e20ed6" x="82.285753" y="529.028094" style="stroke: #000000; stroke-width: 0.8"/>
      </g>
     </g>
     <g id="text_38">
      <!-- Teacher -->
      <g transform="translate(61.339659 544.234406) scale(0.108 -0.108)">
       <use xlink:href="#DejaVuSans-54"/>
       <use xlink:href="#DejaVuSans-65" transform="translate(44.083984 0)"/>
       <use xlink:href="#DejaVuSans-61" transform="translate(105.607422 0)"/>
       <use xlink:href="#DejaVuSans-63" transform="translate(166.886719 0)"/>
       <use xlink:href="#DejaVuSans-68" transform="translate(221.867188 0)"/>
       <use xlink:href="#DejaVuSans-65" transform="translate(285.246094 0)"/>
       <use xlink:href="#DejaVuSans-72" transform="translate(346.769531 0)"/>
      </g>
     </g>
    </g>
    <g id="xtick_12">
     <g id="line2d_42">
      <g>
       <use xlink:href="#m4b12e20ed6" x="152.574517" y="529.028094" style="stroke: #000000; stroke-width: 0.8"/>
      </g>
     </g>
     <g id="text_39">
      <!-- v3 -->
      <g transform="translate(145.942642 544.234406) scale(0.108 -0.108)">
       <use xlink:href="#DejaVuSans-76"/>
       <use xlink:href="#DejaVuSans-33" transform="translate(59.179688 0)"/>
      </g>
     </g>
    </g>
    <g id="xtick_13">
     <g id="line2d_43">
      <g>
       <use xlink:href="#m4b12e20ed6" x="222.863281" y="529.028094" style="stroke: #000000; stroke-width: 0.8"/>
      </g>
     </g>
     <g id="text_40">
      <!-- v4 -->
      <g transform="translate(216.231406 544.234406) scale(0.108 -0.108)">
       <use xlink:href="#DejaVuSans-76"/>
       <use xlink:href="#DejaVuSans-34" transform="translate(59.179688 0)"/>
      </g>
     </g>
    </g>
    <g id="xtick_14">
     <g id="line2d_44">
      <g>
       <use xlink:href="#m4b12e20ed6" x="293.152046" y="529.028094" style="stroke: #000000; stroke-width: 0.8"/>
      </g>
     </g>
     <g id="text_41">
      <!-- v5 -->
      <g transform="translate(286.520171 544.234406) scale(0.108 -0.108)">
       <use xlink:href="#DejaVuSans-76"/>
       <use xlink:href="#DejaVuSans-35" transform="translate(59.179688 0)"/>
      </g>
     </g>
    </g>
    <g id="xtick_15">
     <g id="line2d_45">
      <g>
       <use xlink:href="#m4b12e20ed6" x="363.44081" y="529.028094" style="stroke: #000000; stroke-width: 0.8"/>
      </g>
     </g>
     <g id="text_42">
      <!-- v6 -->
      <g transform="translate(356.808935 544.234406) scale(0.108 -0.108)">
       <use xlink:href="#DejaVuSans-76"/>
       <use xlink:href="#DejaVuSans-36" transform="translate(59.179688 0)"/>
      </g>
     </g>
    </g>
   </g>
   <g id="matplotlib.axis_6">
    <g id="ytick_16">
     <g id="line2d_46">
      <path d="M 44.259531 496.698224 
L 401.467031 496.698224 
" clip-path="url(#pc2b4fce42d)" style="fill: none; stroke: #d7e7f2; stroke-linecap: square"/>
     </g>
     <g id="line2d_47">
      <g>
       <use xlink:href="#m9604b9ba33" x="44.259531" y="496.698224" style="fill: #486581; stroke: #486581; stroke-width: 0.8"/>
      </g>
     </g>
     <g id="text_43">
      <!-- 0.52 -->
      <g style="fill: #486581" transform="translate(13.880625 500.687403) scale(0.105 -0.105)">
       <use xlink:href="#DejaVuSans-30"/>
       <use xlink:href="#DejaVuSans-2e" transform="translate(63.623047 0)"/>
       <use xlink:href="#DejaVuSans-35" transform="translate(95.410156 0)"/>
       <use xlink:href="#DejaVuSans-32" transform="translate(159.033203 0)"/>
      </g>
     </g>
    </g>
    <g id="ytick_17">
     <g id="line2d_48">
      <path d="M 44.259531 450.644278 
L 401.467031 450.644278 
" clip-path="url(#pc2b4fce42d)" style="fill: none; stroke: #d7e7f2; stroke-linecap: square"/>
     </g>
     <g id="line2d_49">
      <g>
       <use xlink:href="#m9604b9ba33" x="44.259531" y="450.644278" style="fill: #486581; stroke: #486581; stroke-width: 0.8"/>
      </g>
     </g>
     <g id="text_44">
      <!-- 0.53 -->
      <g style="fill: #486581" transform="translate(13.880625 454.633457) scale(0.105 -0.105)">
       <use xlink:href="#DejaVuSans-30"/>
       <use xlink:href="#DejaVuSans-2e" transform="translate(63.623047 0)"/>
       <use xlink:href="#DejaVuSans-35" transform="translate(95.410156 0)"/>
       <use xlink:href="#DejaVuSans-33" transform="translate(159.033203 0)"/>
      </g>
     </g>
    </g>
    <g id="ytick_18">
     <g id="line2d_50">
      <path d="M 44.259531 404.590332 
L 401.467031 404.590332 
" clip-path="url(#pc2b4fce42d)" style="fill: none; stroke: #d7e7f2; stroke-linecap: square"/>
     </g>
     <g id="line2d_51">
      <g>
       <use xlink:href="#m9604b9ba33" x="44.259531" y="404.590332" style="fill: #486581; stroke: #486581; stroke-width: 0.8"/>
      </g>
     </g>
     <g id="text_45">
      <!-- 0.54 -->
      <g style="fill: #486581" transform="translate(13.880625 408.579511) scale(0.105 -0.105)">
       <use xlink:href="#DejaVuSans-30"/>
       <use xlink:href="#DejaVuSans-2e" transform="translate(63.623047 0)"/>
       <use xlink:href="#DejaVuSans-35" transform="translate(95.410156 0)"/>
       <use xlink:href="#DejaVuSans-34" transform="translate(159.033203 0)"/>
      </g>
     </g>
    </g>
    <g id="ytick_19">
     <g id="line2d_52">
      <path d="M 44.259531 358.536385 
L 401.467031 358.536385 
" clip-path="url(#pc2b4fce42d)" style="fill: none; stroke: #d7e7f2; stroke-linecap: square"/>
     </g>
     <g id="line2d_53">
      <g>
       <use xlink:href="#m9604b9ba33" x="44.259531" y="358.536385" style="fill: #486581; stroke: #486581; stroke-width: 0.8"/>
      </g>
     </g>
     <g id="text_46">
      <!-- 0.55 -->
      <g style="fill: #486581" transform="translate(13.880625 362.525565) scale(0.105 -0.105)">
       <use xlink:href="#DejaVuSans-30"/>
       <use xlink:href="#DejaVuSans-2e" transform="translate(63.623047 0)"/>
       <use xlink:href="#DejaVuSans-35" transform="translate(95.410156 0)"/>
       <use xlink:href="#DejaVuSans-35" transform="translate(159.033203 0)"/>
      </g>
     </g>
    </g>
   </g>
   <g id="patch_24">
    <path d="M 44.259531 529.028094 
L 44.259531 344.628094 
" style="fill: none; stroke: #c8d8e8; stroke-width: 0.8; stroke-linejoin: miter; stroke-linecap: square"/>
   </g>
   <g id="patch_25">
    <path d="M 44.259531 529.028094 
L 401.467031 529.028094 
" style="fill: none; stroke: #c8d8e8; stroke-width: 0.8; stroke-linejoin: miter; stroke-linecap: square"/>
   </g>
   <g id="text_47">
    <!-- 0.5473 -->
    <g style="fill: #334e68" transform="translate(65.840159 366.908616) scale(0.094 -0.094)">
     <use xlink:href="#DejaVuSans-30"/>
     <use xlink:href="#DejaVuSans-2e" transform="translate(63.623047 0)"/>
     <use xlink:href="#DejaVuSans-35" transform="translate(95.410156 0)"/>
     <use xlink:href="#DejaVuSans-34" transform="translate(159.033203 0)"/>
     <use xlink:href="#DejaVuSans-37" transform="translate(222.65625 0)"/>
     <use xlink:href="#DejaVuSans-33" transform="translate(286.279297 0)"/>
    </g>
   </g>
   <g id="text_48">
    <!-- 0.5206 -->
    <g style="fill: #334e68" transform="translate(136.128923 489.872652) scale(0.094 -0.094)">
     <use xlink:href="#DejaVuSans-30"/>
     <use xlink:href="#DejaVuSans-2e" transform="translate(63.623047 0)"/>
     <use xlink:href="#DejaVuSans-35" transform="translate(95.410156 0)"/>
     <use xlink:href="#DejaVuSans-32" transform="translate(159.033203 0)"/>
     <use xlink:href="#DejaVuSans-30" transform="translate(222.65625 0)"/>
     <use xlink:href="#DejaVuSans-36" transform="translate(286.279297 0)"/>
    </g>
   </g>
   <g id="text_49">
    <!-- 0.5207 -->
    <g style="fill: #334e68" transform="translate(206.417687 489.412113) scale(0.094 -0.094)">
     <use xlink:href="#DejaVuSans-30"/>
     <use xlink:href="#DejaVuSans-2e" transform="translate(63.623047 0)"/>
     <use xlink:href="#DejaVuSans-35" transform="translate(95.410156 0)"/>
     <use xlink:href="#DejaVuSans-32" transform="translate(159.033203 0)"/>
     <use xlink:href="#DejaVuSans-30" transform="translate(222.65625 0)"/>
     <use xlink:href="#DejaVuSans-37" transform="translate(286.279297 0)"/>
    </g>
   </g>
   <g id="text_50">
    <!-- 0.5232 -->
    <g style="fill: #334e68" transform="translate(276.706452 477.898626) scale(0.094 -0.094)">
     <use xlink:href="#DejaVuSans-30"/>
     <use xlink:href="#DejaVuSans-2e" transform="translate(63.623047 0)"/>
     <use xlink:href="#DejaVuSans-35" transform="translate(95.410156 0)"/>
     <use xlink:href="#DejaVuSans-32" transform="translate(159.033203 0)"/>
     <use xlink:href="#DejaVuSans-33" transform="translate(222.65625 0)"/>
     <use xlink:href="#DejaVuSans-32" transform="translate(286.279297 0)"/>
    </g>
   </g>
   <g id="text_51">
    <!-- 0.5187 -->
    <g style="fill: #334e68" transform="translate(346.995216 498.622902) scale(0.094 -0.094)">
     <use xlink:href="#DejaVuSans-30"/>
     <use xlink:href="#DejaVuSans-2e" transform="translate(63.623047 0)"/>
     <use xlink:href="#DejaVuSans-35" transform="translate(95.410156 0)"/>
     <use xlink:href="#DejaVuSans-31" transform="translate(159.033203 0)"/>
     <use xlink:href="#DejaVuSans-38" transform="translate(222.65625 0)"/>
     <use xlink:href="#DejaVuSans-37" transform="translate(286.279297 0)"/>
    </g>
   </g>
   <g id="text_52">
    <!-- Finetuned test RMSE -->
    <g style="fill: #12344d" transform="translate(134.31875 332.628094) scale(0.15 -0.15)">
     <defs>
      <path id="DejaVuSans-Bold-69" d="M 538 3500 
L 1656 3500 
L 1656 0 
L 538 0 
L 538 3500 
z
M 538 4863 
L 1656 4863 
L 1656 3950 
L 538 3950 
L 538 4863 
z
" transform="scale(0.015625)"/>
      <path id="DejaVuSans-Bold-75" d="M 500 1363 
L 500 3500 
L 1625 3500 
L 1625 3150 
Q 1625 2866 1622 2436 
Q 1619 2006 1619 1863 
Q 1619 1441 1641 1255 
Q 1663 1069 1716 984 
Q 1784 875 1895 815 
Q 2006 756 2150 756 
Q 2500 756 2700 1025 
Q 2900 1294 2900 1772 
L 2900 3500 
L 4019 3500 
L 4019 0 
L 2900 0 
L 2900 506 
Q 2647 200 2364 54 
Q 2081 -91 1741 -91 
Q 1134 -91 817 281 
Q 500 653 500 1363 
z
" transform="scale(0.015625)"/>
      <path id="DejaVuSans-Bold-64" d="M 2919 2988 
L 2919 4863 
L 4044 4863 
L 4044 0 
L 2919 0 
L 2919 506 
Q 2688 197 2409 53 
Q 2131 -91 1766 -91 
Q 1119 -91 703 423 
Q 288 938 288 1747 
Q 288 2556 703 3070 
Q 1119 3584 1766 3584 
Q 2128 3584 2408 3439 
Q 2688 3294 2919 2988 
z
M 2181 722 
Q 2541 722 2730 984 
Q 2919 1247 2919 1747 
Q 2919 2247 2730 2509 
Q 2541 2772 2181 2772 
Q 1825 2772 1636 2509 
Q 1447 2247 1447 1747 
Q 1447 1247 1636 984 
Q 1825 722 2181 722 
z
" transform="scale(0.015625)"/>
     </defs>
     <use xlink:href="#DejaVuSans-Bold-46"/>
     <use xlink:href="#DejaVuSans-Bold-69" transform="translate(68.310547 0)"/>
     <use xlink:href="#DejaVuSans-Bold-6e" transform="translate(102.587891 0)"/>
     <use xlink:href="#DejaVuSans-Bold-65" transform="translate(173.779297 0)"/>
     <use xlink:href="#DejaVuSans-Bold-74" transform="translate(241.601562 0)"/>
     <use xlink:href="#DejaVuSans-Bold-75" transform="translate(289.404297 0)"/>
     <use xlink:href="#DejaVuSans-Bold-6e" transform="translate(360.595703 0)"/>
     <use xlink:href="#DejaVuSans-Bold-65" transform="translate(431.787109 0)"/>
     <use xlink:href="#DejaVuSans-Bold-64" transform="translate(499.609375 0)"/>
     <use xlink:href="#DejaVuSans-Bold-20" transform="translate(571.191406 0)"/>
     <use xlink:href="#DejaVuSans-Bold-74" transform="translate(606.005859 0)"/>
     <use xlink:href="#DejaVuSans-Bold-65" transform="translate(653.808594 0)"/>
     <use xlink:href="#DejaVuSans-Bold-73" transform="translate(721.630859 0)"/>
     <use xlink:href="#DejaVuSans-Bold-74" transform="translate(781.152344 0)"/>
     <use xlink:href="#DejaVuSans-Bold-20" transform="translate(828.955078 0)"/>
     <use xlink:href="#DejaVuSans-Bold-52" transform="translate(863.769531 0)"/>
     <use xlink:href="#DejaVuSans-Bold-4d" transform="translate(940.771484 0)"/>
     <use xlink:href="#DejaVuSans-Bold-53" transform="translate(1040.283203 0)"/>
     <use xlink:href="#DejaVuSans-Bold-45" transform="translate(1112.304688 0)"/>
    </g>
   </g>
  </g>
  <g id="axes_4">
   <g id="patch_26">
    <path d="M 449.282031 529.028094 
L 806.489531 529.028094 
L 806.489531 344.628094 
L 449.282031 344.628094 
z
" style="fill: #ffffff"/>
   </g>
   <g id="patch_27">
    <path d="M 465.518736 2818.307356 
L 509.09777 2818.307356 
L 509.09777 370.970951 
L 465.518736 370.970951 
z
" clip-path="url(#pbedc552153)" style="fill: #0b4f6c"/>
   </g>
   <g id="patch_28">
    <path d="M 535.8075 2818.307356 
L 579.386534 2818.307356 
L 579.386534 486.296823 
L 535.8075 486.296823 
z
" clip-path="url(#pbedc552153)" style="fill: #7c3aed"/>
   </g>
   <g id="patch_29">
    <path d="M 606.096264 2818.307356 
L 649.675298 2818.307356 
L 649.675298 490.545671 
L 606.096264 490.545671 
z
" clip-path="url(#pbedc552153)" style="fill: #c47f00"/>
   </g>
   <g id="patch_30">
    <path d="M 676.385029 2818.307356 
L 719.964062 2818.307356 
L 719.964062 486.903801 
L 676.385029 486.903801 
z
" clip-path="url(#pbedc552153)" style="fill: #c2410c"/>
   </g>
   <g id="patch_31">
    <path d="M 746.673793 2818.307356 
L 790.252827 2818.307356 
L 790.252827 502.685237 
L 746.673793 502.685237 
z
" clip-path="url(#pbedc552153)" style="fill: #178f87; stroke: #12344d; stroke-width: 2.2; stroke-linejoin: miter"/>
   </g>
   <g id="matplotlib.axis_7">
    <g id="xtick_16">
     <g id="line2d_54">
      <g>
       <use xlink:href="#m4b12e20ed6" x="487.308253" y="529.028094" style="stroke: #000000; stroke-width: 0.8"/>
      </g>
     </g>
     <g id="text_53">
      <!-- Teacher -->
      <g transform="translate(466.362159 544.234406) scale(0.108 -0.108)">
       <use xlink:href="#DejaVuSans-54"/>
       <use xlink:href="#DejaVuSans-65" transform="translate(44.083984 0)"/>
       <use xlink:href="#DejaVuSans-61" transform="translate(105.607422 0)"/>
       <use xlink:href="#DejaVuSans-63" transform="translate(166.886719 0)"/>
       <use xlink:href="#DejaVuSans-68" transform="translate(221.867188 0)"/>
       <use xlink:href="#DejaVuSans-65" transform="translate(285.246094 0)"/>
       <use xlink:href="#DejaVuSans-72" transform="translate(346.769531 0)"/>
      </g>
     </g>
    </g>
    <g id="xtick_17">
     <g id="line2d_55">
      <g>
       <use xlink:href="#m4b12e20ed6" x="557.597017" y="529.028094" style="stroke: #000000; stroke-width: 0.8"/>
      </g>
     </g>
     <g id="text_54">
      <!-- v3 -->
      <g transform="translate(550.965142 544.234406) scale(0.108 -0.108)">
       <use xlink:href="#DejaVuSans-76"/>
       <use xlink:href="#DejaVuSans-33" transform="translate(59.179688 0)"/>
      </g>
     </g>
    </g>
    <g id="xtick_18">
     <g id="line2d_56">
      <g>
       <use xlink:href="#m4b12e20ed6" x="627.885781" y="529.028094" style="stroke: #000000; stroke-width: 0.8"/>
      </g>
     </g>
     <g id="text_55">
      <!-- v4 -->
      <g transform="translate(621.253906 544.234406) scale(0.108 -0.108)">
       <use xlink:href="#DejaVuSans-76"/>
       <use xlink:href="#DejaVuSans-34" transform="translate(59.179688 0)"/>
      </g>
     </g>
    </g>
    <g id="xtick_19">
     <g id="line2d_57">
      <g>
       <use xlink:href="#m4b12e20ed6" x="698.174546" y="529.028094" style="stroke: #000000; stroke-width: 0.8"/>
      </g>
     </g>
     <g id="text_56">
      <!-- v5 -->
      <g transform="translate(691.542671 544.234406) scale(0.108 -0.108)">
       <use xlink:href="#DejaVuSans-76"/>
       <use xlink:href="#DejaVuSans-35" transform="translate(59.179688 0)"/>
      </g>
     </g>
    </g>
    <g id="xtick_20">
     <g id="line2d_58">
      <g>
       <use xlink:href="#m4b12e20ed6" x="768.46331" y="529.028094" style="stroke: #000000; stroke-width: 0.8"/>
      </g>
     </g>
     <g id="text_57">
      <!-- v6 -->
      <g transform="translate(761.831435 544.234406) scale(0.108 -0.108)">
       <use xlink:href="#DejaVuSans-76"/>
       <use xlink:href="#DejaVuSans-36" transform="translate(59.179688 0)"/>
      </g>
     </g>
    </g>
   </g>
   <g id="matplotlib.axis_8">
    <g id="ytick_20">
     <g id="line2d_59">
      <path d="M 449.282031 511.789911 
L 806.489531 511.789911 
" clip-path="url(#pbedc552153)" style="fill: none; stroke: #d7e7f2; stroke-linecap: square"/>
     </g>
     <g id="line2d_60">
      <g>
       <use xlink:href="#m9604b9ba33" x="449.282031" y="511.789911" style="fill: #486581; stroke: #486581; stroke-width: 0.8"/>
      </g>
     </g>
     <g id="text_58">
      <!-- 0.380 -->
      <g style="fill: #486581" transform="translate(412.2225 515.77909) scale(0.105 -0.105)">
       <use xlink:href="#DejaVuSans-30"/>
       <use xlink:href="#DejaVuSans-2e" transform="translate(63.623047 0)"/>
       <use xlink:href="#DejaVuSans-33" transform="translate(95.410156 0)"/>
       <use xlink:href="#DejaVuSans-38" transform="translate(159.033203 0)"/>
       <use xlink:href="#DejaVuSans-30" transform="translate(222.65625 0)"/>
      </g>
     </g>
    </g>
    <g id="ytick_21">
     <g id="line2d_61">
      <path d="M 449.282031 481.440997 
L 806.489531 481.440997 
" clip-path="url(#pbedc552153)" style="fill: none; stroke: #d7e7f2; stroke-linecap: square"/>
     </g>
     <g id="line2d_62">
      <g>
       <use xlink:href="#m9604b9ba33" x="449.282031" y="481.440997" style="fill: #486581; stroke: #486581; stroke-width: 0.8"/>
      </g>
     </g>
     <g id="text_59">
      <!-- 0.385 -->
      <g style="fill: #486581" transform="translate(412.2225 485.430177) scale(0.105 -0.105)">
       <use xlink:href="#DejaVuSans-30"/>
       <use xlink:href="#DejaVuSans-2e" transform="translate(63.623047 0)"/>
       <use xlink:href="#DejaVuSans-33" transform="translate(95.410156 0)"/>
       <use xlink:href="#DejaVuSans-38" transform="translate(159.033203 0)"/>
       <use xlink:href="#DejaVuSans-35" transform="translate(222.65625 0)"/>
      </g>
     </g>
    </g>
    <g id="ytick_22">
     <g id="line2d_63">
      <path d="M 449.282031 451.092083 
L 806.489531 451.092083 
" clip-path="url(#pbedc552153)" style="fill: none; stroke: #d7e7f2; stroke-linecap: square"/>
     </g>
     <g id="line2d_64">
      <g>
       <use xlink:href="#m9604b9ba33" x="449.282031" y="451.092083" style="fill: #486581; stroke: #486581; stroke-width: 0.8"/>
      </g>
     </g>
     <g id="text_60">
      <!-- 0.390 -->
      <g style="fill: #486581" transform="translate(412.2225 455.081263) scale(0.105 -0.105)">
       <use xlink:href="#DejaVuSans-30"/>
       <use xlink:href="#DejaVuSans-2e" transform="translate(63.623047 0)"/>
       <use xlink:href="#DejaVuSans-33" transform="translate(95.410156 0)"/>
       <use xlink:href="#DejaVuSans-39" transform="translate(159.033203 0)"/>
       <use xlink:href="#DejaVuSans-30" transform="translate(222.65625 0)"/>
      </g>
     </g>
    </g>
    <g id="ytick_23">
     <g id="line2d_65">
      <path d="M 449.282031 420.743169 
L 806.489531 420.743169 
" clip-path="url(#pbedc552153)" style="fill: none; stroke: #d7e7f2; stroke-linecap: square"/>
     </g>
     <g id="line2d_66">
      <g>
       <use xlink:href="#m9604b9ba33" x="449.282031" y="420.743169" style="fill: #486581; stroke: #486581; stroke-width: 0.8"/>
      </g>
     </g>
     <g id="text_61">
      <!-- 0.395 -->
      <g style="fill: #486581" transform="translate(412.2225 424.732349) scale(0.105 -0.105)">
       <use xlink:href="#DejaVuSans-30"/>
       <use xlink:href="#DejaVuSans-2e" transform="translate(63.623047 0)"/>
       <use xlink:href="#DejaVuSans-33" transform="translate(95.410156 0)"/>
       <use xlink:href="#DejaVuSans-39" transform="translate(159.033203 0)"/>
       <use xlink:href="#DejaVuSans-35" transform="translate(222.65625 0)"/>
      </g>
     </g>
    </g>
    <g id="ytick_24">
     <g id="line2d_67">
      <path d="M 449.282031 390.394256 
L 806.489531 390.394256 
" clip-path="url(#pbedc552153)" style="fill: none; stroke: #d7e7f2; stroke-linecap: square"/>
     </g>
     <g id="line2d_68">
      <g>
       <use xlink:href="#m9604b9ba33" x="449.282031" y="390.394256" style="fill: #486581; stroke: #486581; stroke-width: 0.8"/>
      </g>
     </g>
     <g id="text_62">
      <!-- 0.400 -->
      <g style="fill: #486581" transform="translate(412.2225 394.383435) scale(0.105 -0.105)">
       <use xlink:href="#DejaVuSans-30"/>
       <use xlink:href="#DejaVuSans-2e" transform="translate(63.623047 0)"/>
       <use xlink:href="#DejaVuSans-34" transform="translate(95.410156 0)"/>
       <use xlink:href="#DejaVuSans-30" transform="translate(159.033203 0)"/>
       <use xlink:href="#DejaVuSans-30" transform="translate(222.65625 0)"/>
      </g>
     </g>
    </g>
    <g id="ytick_25">
     <g id="line2d_69">
      <path d="M 449.282031 360.045342 
L 806.489531 360.045342 
" clip-path="url(#pbedc552153)" style="fill: none; stroke: #d7e7f2; stroke-linecap: square"/>
     </g>
     <g id="line2d_70">
      <g>
       <use xlink:href="#m9604b9ba33" x="449.282031" y="360.045342" style="fill: #486581; stroke: #486581; stroke-width: 0.8"/>
      </g>
     </g>
     <g id="text_63">
      <!-- 0.405 -->
      <g style="fill: #486581" transform="translate(412.2225 364.034522) scale(0.105 -0.105)">
       <use xlink:href="#DejaVuSans-30"/>
       <use xlink:href="#DejaVuSans-2e" transform="translate(63.623047 0)"/>
       <use xlink:href="#DejaVuSans-34" transform="translate(95.410156 0)"/>
       <use xlink:href="#DejaVuSans-30" transform="translate(159.033203 0)"/>
       <use xlink:href="#DejaVuSans-35" transform="translate(222.65625 0)"/>
      </g>
     </g>
    </g>
   </g>
   <g id="patch_32">
    <path d="M 449.282031 529.028094 
L 449.282031 344.628094 
" style="fill: none; stroke: #c8d8e8; stroke-width: 0.8; stroke-linejoin: miter; stroke-linecap: square"/>
   </g>
   <g id="patch_33">
    <path d="M 449.282031 529.028094 
L 806.489531 529.028094 
" style="fill: none; stroke: #c8d8e8; stroke-width: 0.8; stroke-linejoin: miter; stroke-linecap: square"/>
   </g>
   <g id="text_64">
    <!-- 0.4032 -->
    <g style="fill: #334e68" transform="translate(470.862659 366.908616) scale(0.094 -0.094)">
     <use xlink:href="#DejaVuSans-30"/>
     <use xlink:href="#DejaVuSans-2e" transform="translate(63.623047 0)"/>
     <use xlink:href="#DejaVuSans-34" transform="translate(95.410156 0)"/>
     <use xlink:href="#DejaVuSans-30" transform="translate(159.033203 0)"/>
     <use xlink:href="#DejaVuSans-33" transform="translate(222.65625 0)"/>
     <use xlink:href="#DejaVuSans-32" transform="translate(286.279297 0)"/>
    </g>
   </g>
   <g id="text_65">
    <!-- 0.3842 -->
    <g style="fill: #334e68" transform="translate(541.151423 482.234488) scale(0.094 -0.094)">
     <use xlink:href="#DejaVuSans-30"/>
     <use xlink:href="#DejaVuSans-2e" transform="translate(63.623047 0)"/>
     <use xlink:href="#DejaVuSans-33" transform="translate(95.410156 0)"/>
     <use xlink:href="#DejaVuSans-38" transform="translate(159.033203 0)"/>
     <use xlink:href="#DejaVuSans-34" transform="translate(222.65625 0)"/>
     <use xlink:href="#DejaVuSans-32" transform="translate(286.279297 0)"/>
    </g>
   </g>
   <g id="text_66">
    <!-- 0.3835 -->
    <g style="fill: #334e68" transform="translate(611.440187 486.483336) scale(0.094 -0.094)">
     <use xlink:href="#DejaVuSans-30"/>
     <use xlink:href="#DejaVuSans-2e" transform="translate(63.623047 0)"/>
     <use xlink:href="#DejaVuSans-33" transform="translate(95.410156 0)"/>
     <use xlink:href="#DejaVuSans-38" transform="translate(159.033203 0)"/>
     <use xlink:href="#DejaVuSans-33" transform="translate(222.65625 0)"/>
     <use xlink:href="#DejaVuSans-35" transform="translate(286.279297 0)"/>
    </g>
   </g>
   <g id="text_67">
    <!-- 0.3841 -->
    <g style="fill: #334e68" transform="translate(681.728952 482.841467) scale(0.094 -0.094)">
     <use xlink:href="#DejaVuSans-30"/>
     <use xlink:href="#DejaVuSans-2e" transform="translate(63.623047 0)"/>
     <use xlink:href="#DejaVuSans-33" transform="translate(95.410156 0)"/>
     <use xlink:href="#DejaVuSans-38" transform="translate(159.033203 0)"/>
     <use xlink:href="#DejaVuSans-34" transform="translate(222.65625 0)"/>
     <use xlink:href="#DejaVuSans-31" transform="translate(286.279297 0)"/>
    </g>
   </g>
   <g id="text_68">
    <!-- 0.3815 -->
    <g style="fill: #334e68" transform="translate(752.017716 498.622902) scale(0.094 -0.094)">
     <use xlink:href="#DejaVuSans-30"/>
     <use xlink:href="#DejaVuSans-2e" transform="translate(63.623047 0)"/>
     <use xlink:href="#DejaVuSans-33" transform="translate(95.410156 0)"/>
     <use xlink:href="#DejaVuSans-38" transform="translate(159.033203 0)"/>
     <use xlink:href="#DejaVuSans-31" transform="translate(222.65625 0)"/>
     <use xlink:href="#DejaVuSans-35" transform="translate(286.279297 0)"/>
    </g>
   </g>
   <g id="text_69">
    <!-- Finetuned test MAE -->
    <g style="fill: #12344d" transform="translate(544.713125 332.628094) scale(0.15 -0.15)">
     <use xlink:href="#DejaVuSans-Bold-46"/>
     <use xlink:href="#DejaVuSans-Bold-69" transform="translate(68.310547 0)"/>
     <use xlink:href="#DejaVuSans-Bold-6e" transform="translate(102.587891 0)"/>
     <use xlink:href="#DejaVuSans-Bold-65" transform="translate(173.779297 0)"/>
     <use xlink:href="#DejaVuSans-Bold-74" transform="translate(241.601562 0)"/>
     <use xlink:href="#DejaVuSans-Bold-75" transform="translate(289.404297 0)"/>
     <use xlink:href="#DejaVuSans-Bold-6e" transform="translate(360.595703 0)"/>
     <use xlink:href="#DejaVuSans-Bold-65" transform="translate(431.787109 0)"/>
     <use xlink:href="#DejaVuSans-Bold-64" transform="translate(499.609375 0)"/>
     <use xlink:href="#DejaVuSans-Bold-20" transform="translate(571.191406 0)"/>
     <use xlink:href="#DejaVuSans-Bold-74" transform="translate(606.005859 0)"/>
     <use xlink:href="#DejaVuSans-Bold-65" transform="translate(653.808594 0)"/>
     <use xlink:href="#DejaVuSans-Bold-73" transform="translate(721.630859 0)"/>
     <use xlink:href="#DejaVuSans-Bold-74" transform="translate(781.152344 0)"/>
     <use xlink:href="#DejaVuSans-Bold-20" transform="translate(828.955078 0)"/>
     <use xlink:href="#DejaVuSans-Bold-4d" transform="translate(863.769531 0)"/>
     <use xlink:href="#DejaVuSans-Bold-41" transform="translate(963.28125 0)"/>
     <use xlink:href="#DejaVuSans-Bold-45" transform="translate(1040.673828 0)"/>
    </g>
   </g>
  </g>
  <g id="text_70">
   <!-- ChemeleonSMD lipophilicity benchmark -->
   <g style="fill: #12344d" transform="translate(18.089531 26.196094) scale(0.25 -0.25)">
    <defs>
     <path id="DejaVuSans-Bold-43" d="M 4288 256 
Q 3956 84 3597 -3 
Q 3238 -91 2847 -91 
Q 1681 -91 1000 561 
Q 319 1213 319 2328 
Q 319 3447 1000 4098 
Q 1681 4750 2847 4750 
Q 3238 4750 3597 4662 
Q 3956 4575 4288 4403 
L 4288 3438 
Q 3953 3666 3628 3772 
Q 3303 3878 2944 3878 
Q 2300 3878 1931 3465 
Q 1563 3053 1563 2328 
Q 1563 1606 1931 1193 
Q 2300 781 2944 781 
Q 3303 781 3628 887 
Q 3953 994 4288 1222 
L 4288 256 
z
" transform="scale(0.015625)"/>
     <path id="DejaVuSans-Bold-68" d="M 4056 2131 
L 4056 0 
L 2931 0 
L 2931 347 
L 2931 1625 
Q 2931 2084 2911 2256 
Q 2891 2428 2841 2509 
Q 2775 2619 2662 2680 
Q 2550 2741 2406 2741 
Q 2056 2741 1856 2470 
Q 1656 2200 1656 1722 
L 1656 0 
L 538 0 
L 538 4863 
L 1656 4863 
L 1656 2988 
Q 1909 3294 2193 3439 
Q 2478 3584 2822 3584 
Q 3428 3584 3742 3212 
Q 4056 2841 4056 2131 
z
" transform="scale(0.015625)"/>
     <path id="DejaVuSans-Bold-6d" d="M 3781 2919 
Q 3994 3244 4286 3414 
Q 4578 3584 4928 3584 
Q 5531 3584 5847 3212 
Q 6163 2841 6163 2131 
L 6163 0 
L 5038 0 
L 5038 1825 
Q 5041 1866 5042 1909 
Q 5044 1953 5044 2034 
Q 5044 2406 4934 2573 
Q 4825 2741 4581 2741 
Q 4263 2741 4089 2478 
Q 3916 2216 3909 1719 
L 3909 0 
L 2784 0 
L 2784 1825 
Q 2784 2406 2684 2573 
Q 2584 2741 2328 2741 
Q 2006 2741 1831 2477 
Q 1656 2213 1656 1722 
L 1656 0 
L 531 0 
L 531 3500 
L 1656 3500 
L 1656 2988 
Q 1863 3284 2130 3434 
Q 2397 3584 2719 3584 
Q 3081 3584 3359 3409 
Q 3638 3234 3781 2919 
z
" transform="scale(0.015625)"/>
     <path id="DejaVuSans-Bold-6c" d="M 538 4863 
L 1656 4863 
L 1656 0 
L 538 0 
L 538 4863 
z
" transform="scale(0.015625)"/>
     <path id="DejaVuSans-Bold-44" d="M 1791 3756 
L 1791 909 
L 2222 909 
Q 2959 909 3348 1275 
Q 3738 1641 3738 2338 
Q 3738 3031 3350 3393 
Q 2963 3756 2222 3756 
L 1791 3756 
z
M 588 4666 
L 1856 4666 
Q 2919 4666 3439 4514 
Q 3959 4363 4331 4000 
Q 4659 3684 4818 3271 
Q 4978 2859 4978 2338 
Q 4978 1809 4818 1395 
Q 4659 981 4331 666 
Q 3956 303 3431 151 
Q 2906 0 1856 0 
L 588 0 
L 588 4666 
z
" transform="scale(0.015625)"/>
     <path id="DejaVuSans-Bold-70" d="M 1656 506 
L 1656 -1331 
L 538 -1331 
L 538 3500 
L 1656 3500 
L 1656 2988 
Q 1888 3294 2169 3439 
Q 2450 3584 2816 3584 
Q 3463 3584 3878 3070 
Q 4294 2556 4294 1747 
Q 4294 938 3878 423 
Q 3463 -91 2816 -91 
Q 2450 -91 2169 54 
Q 1888 200 1656 506 
z
M 2400 2772 
Q 2041 2772 1848 2508 
Q 1656 2244 1656 1747 
Q 1656 1250 1848 986 
Q 2041 722 2400 722 
Q 2759 722 2948 984 
Q 3138 1247 3138 1747 
Q 3138 2247 2948 2509 
Q 2759 2772 2400 2772 
z
" transform="scale(0.015625)"/>
     <path id="DejaVuSans-Bold-63" d="M 3366 3391 
L 3366 2478 
Q 3138 2634 2908 2709 
Q 2678 2784 2431 2784 
Q 1963 2784 1702 2511 
Q 1441 2238 1441 1747 
Q 1441 1256 1702 982 
Q 1963 709 2431 709 
Q 2694 709 2930 787 
Q 3166 866 3366 1019 
L 3366 103 
Q 3103 6 2833 -42 
Q 2563 -91 2291 -91 
Q 1344 -91 809 395 
Q 275 881 275 1747 
Q 275 2613 809 3098 
Q 1344 3584 2291 3584 
Q 2566 3584 2833 3536 
Q 3100 3488 3366 3391 
z
" transform="scale(0.015625)"/>
     <path id="DejaVuSans-Bold-79" d="M 78 3500 
L 1197 3500 
L 2138 1125 
L 2938 3500 
L 4056 3500 
L 2584 -331 
Q 2363 -916 2067 -1148 
Q 1772 -1381 1288 -1381 
L 641 -1381 
L 641 -647 
L 991 -647 
Q 1275 -647 1404 -556 
Q 1534 -466 1606 -231 
L 1638 -134 
L 78 3500 
z
" transform="scale(0.015625)"/>
     <path id="DejaVuSans-Bold-62" d="M 2400 722 
Q 2759 722 2948 984 
Q 3138 1247 3138 1747 
Q 3138 2247 2948 2509 
Q 2759 2772 2400 2772 
Q 2041 2772 1848 2508 
Q 1656 2244 1656 1747 
Q 1656 1250 1848 986 
Q 2041 722 2400 722 
z
M 1656 2988 
Q 1888 3294 2169 3439 
Q 2450 3584 2816 3584 
Q 3463 3584 3878 3070 
Q 4294 2556 4294 1747 
Q 4294 938 3878 423 
Q 3463 -91 2816 -91 
Q 2450 -91 2169 54 
Q 1888 200 1656 506 
L 1656 0 
L 538 0 
L 538 4863 
L 1656 4863 
L 1656 2988 
z
" transform="scale(0.015625)"/>
     <path id="DejaVuSans-Bold-61" d="M 2106 1575 
Q 1756 1575 1579 1456 
Q 1403 1338 1403 1106 
Q 1403 894 1545 773 
Q 1688 653 1941 653 
Q 2256 653 2472 879 
Q 2688 1106 2688 1447 
L 2688 1575 
L 2106 1575 
z
M 3816 1997 
L 3816 0 
L 2688 0 
L 2688 519 
Q 2463 200 2181 54 
Q 1900 -91 1497 -91 
Q 953 -91 614 226 
Q 275 544 275 1050 
Q 275 1666 698 1953 
Q 1122 2241 2028 2241 
L 2688 2241 
L 2688 2328 
Q 2688 2594 2478 2717 
Q 2269 2841 1825 2841 
Q 1466 2841 1156 2769 
Q 847 2697 581 2553 
L 581 3406 
Q 941 3494 1303 3539 
Q 1666 3584 2028 3584 
Q 2975 3584 3395 3211 
Q 3816 2838 3816 1997 
z
" transform="scale(0.015625)"/>
     <path id="DejaVuSans-Bold-6b" d="M 538 4863 
L 1656 4863 
L 1656 2216 
L 2944 3500 
L 4244 3500 
L 2534 1894 
L 4378 0 
L 3022 0 
L 1656 1459 
L 1656 0 
L 538 0 
L 538 4863 
z
" transform="scale(0.015625)"/>
    </defs>
    <use xlink:href="#DejaVuSans-Bold-43"/>
    <use xlink:href="#DejaVuSans-Bold-68" transform="translate(73.388672 0)"/>
    <use xlink:href="#DejaVuSans-Bold-65" transform="translate(144.580078 0)"/>
    <use xlink:href="#DejaVuSans-Bold-6d" transform="translate(212.402344 0)"/>
    <use xlink:href="#DejaVuSans-Bold-65" transform="translate(316.601562 0)"/>
    <use xlink:href="#DejaVuSans-Bold-6c" transform="translate(384.423828 0)"/>
    <use xlink:href="#DejaVuSans-Bold-65" transform="translate(418.701172 0)"/>
    <use xlink:href="#DejaVuSans-Bold-6f" transform="translate(486.523438 0)"/>
    <use xlink:href="#DejaVuSans-Bold-6e" transform="translate(555.224609 0)"/>
    <use xlink:href="#DejaVuSans-Bold-53" transform="translate(626.416016 0)"/>
    <use xlink:href="#DejaVuSans-Bold-4d" transform="translate(698.4375 0)"/>
    <use xlink:href="#DejaVuSans-Bold-44" transform="translate(797.949219 0)"/>
    <use xlink:href="#DejaVuSans-Bold-20" transform="translate(880.957031 0)"/>
    <use xlink:href="#DejaVuSans-Bold-6c" transform="translate(915.771484 0)"/>
    <use xlink:href="#DejaVuSans-Bold-69" transform="translate(950.048828 0)"/>
    <use xlink:href="#DejaVuSans-Bold-70" transform="translate(984.326172 0)"/>
    <use xlink:href="#DejaVuSans-Bold-6f" transform="translate(1055.908203 0)"/>
    <use xlink:href="#DejaVuSans-Bold-70" transform="translate(1124.609375 0)"/>
    <use xlink:href="#DejaVuSans-Bold-68" transform="translate(1196.191406 0)"/>
    <use xlink:href="#DejaVuSans-Bold-69" transform="translate(1267.382812 0)"/>
    <use xlink:href="#DejaVuSans-Bold-6c" transform="translate(1301.660156 0)"/>
    <use xlink:href="#DejaVuSans-Bold-69" transform="translate(1335.9375 0)"/>
    <use xlink:href="#DejaVuSans-Bold-63" transform="translate(1370.214844 0)"/>
    <use xlink:href="#DejaVuSans-Bold-69" transform="translate(1429.492188 0)"/>
    <use xlink:href="#DejaVuSans-Bold-74" transform="translate(1463.769531 0)"/>
    <use xlink:href="#DejaVuSans-Bold-79" transform="translate(1511.572266 0)"/>
    <use xlink:href="#DejaVuSans-Bold-20" transform="translate(1576.757812 0)"/>
    <use xlink:href="#DejaVuSans-Bold-62" transform="translate(1611.572266 0)"/>
    <use xlink:href="#DejaVuSans-Bold-65" transform="translate(1683.154297 0)"/>
    <use xlink:href="#DejaVuSans-Bold-6e" transform="translate(1750.976562 0)"/>
    <use xlink:href="#DejaVuSans-Bold-63" transform="translate(1822.167969 0)"/>
    <use xlink:href="#DejaVuSans-Bold-68" transform="translate(1881.445312 0)"/>
    <use xlink:href="#DejaVuSans-Bold-6d" transform="translate(1952.636719 0)"/>
    <use xlink:href="#DejaVuSans-Bold-61" transform="translate(2056.835938 0)"/>
    <use xlink:href="#DejaVuSans-Bold-72" transform="translate(2124.316406 0)"/>
    <use xlink:href="#DejaVuSans-Bold-6b" transform="translate(2173.632812 0)"/>
   </g>
  </g>
 </g>
 <defs>
  <clipPath id="p1562d7626a">
   <rect x="44.259531" y="108.108094" width="357.2075" height="184.4"/>
  </clipPath>
  <clipPath id="p6853500512">
   <rect x="449.282031" y="108.108094" width="357.2075" height="184.4"/>
  </clipPath>
  <clipPath id="pc2b4fce42d">
   <rect x="44.259531" y="344.628094" width="357.2075" height="184.4"/>
  </clipPath>
  <clipPath id="pbedc552153">
   <rect x="449.282031" y="344.628094" width="357.2075" height="184.4"/>
  </clipPath>
 </defs>
</svg>
